<?xml version="1.0" encoding="UTF-8" standalone="no"?>
<!-- Created with Inkscape (http://www.inkscape.org/) -->

<svg
   xmlns:dc="http://purl.org/dc/elements/1.1/"
   xmlns:cc="http://creativecommons.org/ns#"
   xmlns:rdf="http://www.w3.org/1999/02/22-rdf-syntax-ns#"
   xmlns:svg="http://www.w3.org/2000/svg"
   xmlns="http://www.w3.org/2000/svg"
   xmlns:sodipodi="http://sodipodi.sourceforge.net/DTD/sodipodi-0.dtd"
   xmlns:inkscape="http://www.inkscape.org/namespaces/inkscape"
   width="210mm"
   height="297mm"
   viewBox="0 0 744.09448819 1052.3622047"
   id="svg2"
   version="1.1"
   inkscape:version="0.91 r"
   sodipodi:docname="generate-html-form.svg">
  <defs
     id="defs4" />
  <sodipodi:namedview
     id="base"
     pagecolor="#ffffff"
     bordercolor="#666666"
     borderopacity="1.0"
     inkscape:pageopacity="0.0"
     inkscape:pageshadow="2"
     inkscape:zoom="1"
     inkscape:cx="357.5"
     inkscape:cy="360"
     inkscape:document-units="px"
     inkscape:current-layer="layer1"
     showgrid="false"
     inkscape:window-width="1301"
     inkscape:window-height="744"
     inkscape:window-x="65"
     inkscape:window-y="24"
     inkscape:window-maximized="1" />
  <metadata
     id="metadata7">
    <rdf:RDF>
      <cc:Work
         rdf:about="">
        <dc:format>image/svg+xml</dc:format>
        <dc:type
           rdf:resource="http://purl.org/dc/dcmitype/StillImage" />
        <dc:title></dc:title>
      </cc:Work>
    </rdf:RDF>
  </metadata>
  <g
     inkscape:label="Layer 1"
     inkscape:groupmode="layer"
     id="layer1">
    <path
       style="fill:#000000;stroke:#000000;stroke-opacity:1"
       id="path4146"
       d="m 192.32052,291.52669 c -0.0496,6.40391 -0.0572,12.80812 -0.0775,19.21219 -0.0449,12.73507 -0.0333,25.47026 -0.0285,38.20539 0.005,12.44772 0.003,24.89544 0.004,37.34316 -0.003,11.308 0.005,22.61599 0.0254,33.92397 0.0163,6.64773 0.0112,13.29562 0.0542,19.94326 0,0 -2.59656,1.32301 -2.59656,1.32301 l 0,0 c 0.0428,-6.66604 0.0379,-13.33233 0.0542,-19.99847 0.02,-11.31661 0.028,-22.63323 0.0254,-33.94986 0.002,-12.44916 -8.2e-4,-24.89831 0.004,-37.34747 0.005,-12.72544 0.0164,-25.45094 -0.0285,-38.17632 -0.0203,-6.37773 -0.0279,-12.75561 -0.0775,-19.13318 0,0 2.64104,-1.34568 2.64104,-1.34568 z"
       inkscape:connector-curvature="0" />
    <path
       style="fill:#000000;stroke:#000000;stroke-opacity:1"
       id="path4150"
       d="m 194.91879,291.48957 c 2.62772,0.0112 5.25549,0.009 7.88323,0.009 2.33442,-0.10661 4.70405,0.19667 7.02136,-0.14014 1.76804,-0.29123 2.04602,0.91482 2.5399,2.27976 0.60616,1.57742 0.7604,3.26082 0.87186,4.93175 0.10459,2.10971 0.091,4.2229 0.0864,6.33449 -0.0168,4.20142 -0.028,8.40287 -0.0312,12.60433 -0.006,4.9859 -10e-4,9.9718 0.001,14.95771 0.005,3.71496 0.0127,7.42993 0.0138,11.14489 0.002,3.03514 0.004,6.07028 0.002,9.10541 0.002,3.0865 -1.5e-4,6.173 -0.003,9.2595 -0.006,4.16297 -0.008,8.32594 -0.0134,12.48892 -0.16779,4.57367 0.25321,9.1257 0.60487,13.6793 0.22632,2.76987 0.3505,5.54588 0.40506,8.32396 0.0327,2.21738 0.0224,4.43508 0.0166,6.6526 -0.007,2.65816 -0.006,5.31633 -0.004,7.9745 0.002,2.14231 0.003,4.28463 0.003,6.42694 3.6e-4,1.99871 3.4e-4,3.99741 3.4e-4,5.99612 0,1.99769 -2e-5,3.99538 -3e-5,5.99308 0.01,1.92841 0.0929,3.83899 -0.26901,5.73934 -0.25305,1.58289 -0.83033,2.97336 -2.1809,3.87961 -2.65255,1.91378 -4.83424,2.06987 -7.86026,2.12588 -2.0038,0.0149 -4.00768,-0.004 -6.01147,-0.0131 -1.63811,-0.0437 -3.28166,0.10035 -4.90494,-0.14523 0,0 2.41966,-1.7082 2.41966,-1.7082 l 0,0 c 1.6182,0.19731 3.25061,0.0764 4.87828,0.11646 2.00257,0.009 4.0053,0.0295 6.00782,0.006 0.95196,-0.0235 1.9061,-0.0398 2.8529,-0.1535 1.14977,-0.13811 3.60786,-1.16769 -0.1514,0.84111 1.42049,-0.76981 2.03231,-2.08397 2.28402,-3.65564 0.38662,-1.88402 0.32389,-3.7722 0.30046,-5.69043 -1e-5,-1.99768 -3e-5,-3.99536 -6e-5,-5.99304 -2e-5,-1.99881 -8e-5,-3.99762 2.7e-4,-5.99643 5.3e-4,-2.14368 0.002,-4.28737 0.005,-6.43105 0.004,-2.65859 0.007,-5.31718 0.006,-7.97578 -0.002,-2.21477 0.003,-4.42964 -0.0207,-6.64432 -0.0447,-2.77833 -0.15137,-5.55527 -0.3637,-8.32636 -0.33512,-4.56341 -0.76303,-9.12416 -0.59985,-13.70646 -0.005,-4.15843 -0.007,-8.31686 -0.0134,-12.47529 -0.003,-3.0854 -0.005,-6.1708 -0.003,-9.25621 -10e-4,-3.03589 1.7e-4,-6.07179 0.002,-9.10769 0.001,-3.71965 0.009,-7.43929 0.0138,-11.15893 0.002,-4.98697 0.007,-9.97394 0.005,-14.96092 -2e-5,-4.19344 -0.006,-8.38688 -0.0156,-12.5803 -0.005,-2.1036 0.005,-4.20862 -0.091,-6.31054 -0.10493,-1.64297 -0.24505,-3.30088 -0.84192,-4.85196 -0.52963,-1.43822 -0.47455,-2.1978 -2.31325,-1.95126 -2.33018,0.25062 -4.68847,0.0221 -7.02809,0.0991 -2.63558,-3e-4 -5.27119,-0.003 -7.90676,0.009 0,0 2.40217,-1.74527 2.40217,-1.74527 z"
       inkscape:connector-curvature="0" />
    <path
       style="fill:#000000;stroke:#000000;stroke-width:0.93243122;stroke-opacity:1"
       id="path4152-1"
       d="m 233.1006,374.01274 c -0.0296,3.64742 -0.0236,7.29504 -0.0223,10.94255 -7.2e-4,3.10696 0.008,6.21391 0.0145,9.32087 0.004,1.9959 0.005,3.99181 0.005,5.98772 2.3e-4,1.8616 1.3e-4,3.7232 8e-5,5.58479 -4e-5,1.87047 -6e-5,3.74094 -7e-5,5.61141 -1e-5,1.87312 0,3.74624 0,5.61937 0,1.87315 0,3.74631 0,5.61946 0,1.87311 0,3.74623 0,5.61935 -0.1565,1.82557 0.49056,3.47343 1.07358,5.15297 0.56589,1.46155 1.30977,2.38431 2.78445,2.89861 1.67472,0.402 3.41154,0.3782 5.12253,0.38948 2.10629,-0.0734 4.18404,0.002 6.27405,0.26345 2.63394,0.21344 5.23478,0.61054 7.84205,1.03005 2.08992,0.34574 4.20393,0.46893 6.31785,0.53034 2.47978,0.0451 4.96019,0.0361 7.44027,0.0323 2.37974,-0.004 4.75949,-0.007 7.13924,-0.009 2.20842,9.4e-4 4.41685,-6.8e-4 6.62528,-0.002 1.91259,-8.3e-4 3.82519,-9.4e-4 5.73778,-9.4e-4 1.85469,-7e-5 3.70938,-5e-5 5.56407,-4e-5 2.08211,-0.002 4.1642,0.003 6.24632,0.004 2.0655,0.18536 4.06282,-0.26271 6.08515,-0.58653 1.76353,-0.26381 3.5478,-0.31075 5.32722,-0.34403 1.64375,-0.003 3.2354,-0.49297 4.86151,-0.71034 1.88282,-0.16591 3.74687,-0.16912 5.60799,-0.52172 1.58435,-0.25115 3.17838,-0.6174 4.63065,-1.31979 0.2144,-0.0996 0.84592,-0.42085 0.64321,-0.29883 -0.58756,0.35369 -1.18834,0.68592 -1.80003,0.99519 -0.20061,0.10142 0.37016,-0.25679 0.56425,-0.37039 0.98362,-0.5757 1.98736,-1.11611 2.96798,-1.69699 0.59095,-0.35006 -1.16781,0.73451 -1.79873,1.00437 -0.19811,0.0848 0.31791,-0.29267 0.47687,-0.43899 0.80419,-1.18259 1.14175,-2.65994 1.53579,-4.03161 0.52269,-2.14179 0.49763,-4.36868 0.54061,-6.5598 0.0456,-4.35155 0.0396,-8.7035 0.0423,-13.05525 -5.1e-4,-5.21821 -0.005,-10.43641 -0.01,-15.65462 -0.004,-4.04488 -0.008,-8.08976 -0.0156,-12.13465 0.15604,-2.67039 -0.48004,-5.24466 -1.08765,-7.81482 -0.49433,-1.60372 -1.26356,-3.11335 -2.14813,-4.53175 -1.00484,-1.19948 -2.54866,-1.31803 -4.00069,-1.44246 -2.3358,-0.1215 -4.61551,0.48774 -6.78948,1.29042 -3.69478,1.21627 -7.4644,2.20126 -11.19659,3.30116 -3.21145,0.97622 -6.50751,1.52526 -9.84293,1.80168 -2.59619,0.17652 -5.20022,0.14209 -7.80055,0.13611 -3.74399,-0.0664 -7.47418,-0.039 -11.20804,0.24952 -3.74551,0.32951 -7.50158,0.50596 -11.25932,0.60488 -2.77057,0.0621 -5.54201,0.0677 -8.31315,0.0711 -1.9832,7.3e-4 -3.96641,-0.002 -5.94961,-0.003 -1.81566,-0.069 -3.65236,0.14731 -5.45273,-0.12719 -1.59329,-0.38778 -3.21206,-0.59666 -4.84433,-0.71273 -0.89491,-0.0551 -1.79139,-0.0704 -2.68756,-0.0875 0,0 2.22478,-1.62382 2.22478,-1.62382 l 0,0 c 0.89962,0.0195 1.79959,0.0374 2.69767,0.0984 1.63606,0.1273 3.25382,0.36127 4.85575,0.72561 1.7977,0.22003 3.61982,0.0401 5.42723,0.0996 1.98059,0.002 3.96117,0.006 5.94176,0.007 2.76368,9.4e-4 5.52763,-7.6e-4 8.29076,-0.0635 3.7513,-0.10068 7.50057,-0.27614 11.23966,-0.60671 3.74357,-0.27671 7.48498,-0.29874 11.23777,-0.24577 2.59777,2e-5 5.19919,0.0228 7.79237,-0.15891 3.31733,-0.28594 6.59393,-0.85308 9.787,-1.82759 3.73752,-1.09482 7.51124,-2.0829 11.20185,-3.32653 2.20795,-0.78554 4.52429,-1.37843 6.88609,-1.21288 1.53756,0.15414 3.11389,0.35687 4.14282,1.65359 0.8946,1.44858 1.67695,2.98466 2.17483,4.62033 0.60533,2.59277 1.2676,5.18808 1.0985,7.88131 -0.007,4.04995 -0.0113,8.0999 -0.0141,12.14986 -0.003,5.21922 -0.004,10.43845 0.004,15.65767 0.008,4.34638 0.0271,8.69287 -9.3e-4,13.03921 -0.0266,2.20575 0.0139,4.44555 -0.4777,6.6084 -0.38575,1.41214 -0.77568,2.88167 -1.47421,4.16133 -1.22694,1.3135 -0.297,0.40804 -3.37452,2.23755 -0.58486,0.34768 1.15987,-0.71225 1.74859,-1.05325 0.19444,-0.11263 -0.37306,0.25138 -0.56529,0.36784 -2.93983,1.78084 -1.93262,1.28917 -3.56816,2.04252 -1.49295,0.63041 -3.06349,1.03022 -4.6646,1.26124 -1.86396,0.32793 -3.74044,0.30601 -5.61818,0.51494 -1.62559,0.23592 -3.22555,0.7134 -4.87761,0.68197 -1.77304,0.0391 -3.5506,0.097 -5.30569,0.37595 -2.02465,0.33259 -4.03274,0.71097 -6.09859,0.54176 -2.08569,9.4e-4 -4.17138,0.006 -6.25707,0.004 -1.85465,1e-5 -3.70928,3e-5 -5.56392,-7e-5 -1.91153,-1.4e-4 -3.82306,-4e-4 -5.73459,-9.4e-4 -2.20767,-9.2e-4 -4.41534,-0.003 -6.62301,1.7e-4 -2.37747,-2.3e-4 -4.75493,9.3e-4 -7.13238,0.004 -2.48547,9.4e-4 -4.9713,0.014 -7.45647,-0.0314 -2.11814,-0.0708 -4.23518,-0.21059 -6.32781,-0.56669 -2.60382,-0.42498 -5.20664,-0.7955 -7.8363,-1.02095 -2.08736,-0.24764 -4.16692,-0.28034 -6.26766,-0.22994 -1.73342,-0.0166 -3.49825,0.002 -5.18339,-0.46308 -1.51223,-0.59303 -2.31938,-1.58899 -2.90799,-3.10951 -0.5886,-1.70615 -1.26286,-3.38409 -1.11268,-5.23746 0,-1.87311 0,-3.74622 0,-5.61933 0,-1.87316 0,-3.74631 0,-5.61947 0,-1.87312 1e-5,-3.74624 0,-5.61937 -10e-6,-1.87044 -3e-5,-3.74088 -7e-5,-5.61132 -5e-5,-1.86163 -1.5e-4,-3.72326 8e-5,-5.58489 4.2e-4,-1.99758 9.3e-4,-3.99517 0.005,-5.99276 0.006,-3.11192 0.0152,-6.22383 0.0145,-9.33576 9.3e-4,-3.63988 0.007,-7.27985 -0.0223,-10.91964 0,0 2.45175,-1.2603 2.45175,-1.2603 z"
       inkscape:connector-curvature="0" />
    <path
       style="fill:#000000;stroke:#000000;stroke-width:0.93243122;stroke-opacity:1"
       id="path4152-1-4"
       d="m 233.10047,295.51298 c -0.0296,3.64742 -0.0236,7.29504 -0.0223,10.94255 -7.2e-4,3.10696 0.008,6.21391 0.0145,9.32087 0.004,1.9959 0.005,3.99181 0.005,5.98772 2.3e-4,1.8616 1.3e-4,3.7232 8e-5,5.58479 -4e-5,1.87047 -6e-5,3.74094 -7e-5,5.61141 -1e-5,1.87312 0,3.74624 0,5.61937 0,1.87315 0,3.74631 0,5.61946 0,1.87311 0,3.74623 0,5.61935 -0.1565,1.82557 0.49056,3.47343 1.07358,5.15297 0.56589,1.46155 1.30977,2.38431 2.78445,2.89861 1.67472,0.402 3.41154,0.3782 5.12253,0.38948 2.10629,-0.0734 4.18404,0.002 6.27405,0.26345 2.63394,0.21344 5.23478,0.61054 7.84205,1.03005 2.08992,0.34574 4.20393,0.46893 6.31785,0.53034 2.47978,0.0451 4.96019,0.0361 7.44027,0.0323 2.37974,-0.004 4.75949,-0.007 7.13924,-0.009 2.20842,9.4e-4 4.41685,-6.8e-4 6.62528,-0.002 1.91259,-8.3e-4 3.82519,-9.4e-4 5.73778,-9.4e-4 1.85469,-7e-5 3.70938,-5e-5 5.56407,-4e-5 2.08211,-0.002 4.1642,0.003 6.24632,0.004 2.0655,0.18536 4.06282,-0.26271 6.08515,-0.58653 1.76353,-0.26381 3.5478,-0.31075 5.32722,-0.34403 1.64375,-0.003 3.2354,-0.49297 4.86151,-0.71034 1.88282,-0.16591 3.74687,-0.16912 5.60799,-0.52172 1.58435,-0.25115 3.17838,-0.6174 4.63065,-1.31979 0.2144,-0.0996 0.84592,-0.42085 0.64321,-0.29883 -0.58756,0.35369 -1.18834,0.68592 -1.80003,0.99519 -0.20061,0.10142 0.37016,-0.25679 0.56425,-0.37039 0.98362,-0.5757 1.98736,-1.11611 2.96798,-1.69699 0.59095,-0.35006 -1.16781,0.73451 -1.79873,1.00437 -0.19811,0.0848 0.31791,-0.29267 0.47687,-0.43899 0.80419,-1.18259 1.14175,-2.65994 1.53579,-4.03161 0.52269,-2.14179 0.49763,-4.36868 0.54061,-6.5598 0.0456,-4.35155 0.0396,-8.7035 0.0423,-13.05525 -5.1e-4,-5.21821 -0.005,-10.43641 -0.01,-15.65462 -0.004,-4.04488 -0.008,-8.08976 -0.0156,-12.13465 0.15604,-2.67039 -0.48004,-5.24466 -1.08765,-7.81482 -0.49433,-1.60372 -1.26356,-3.11335 -2.14813,-4.53175 -1.00484,-1.19948 -2.54866,-1.31803 -4.00069,-1.44246 -2.3358,-0.1215 -4.61551,0.48774 -6.78948,1.29042 -3.69478,1.21627 -7.4644,2.20126 -11.19659,3.30116 -3.21145,0.97622 -6.50751,1.52526 -9.84293,1.80168 -2.59619,0.17652 -5.20022,0.14209 -7.80055,0.13611 -3.74399,-0.0664 -7.47418,-0.039 -11.20804,0.24952 -3.74551,0.32951 -7.50158,0.50596 -11.25932,0.60488 -2.77057,0.0621 -5.54201,0.0677 -8.31315,0.0711 -1.9832,7.3e-4 -3.96641,-0.002 -5.94961,-0.003 -1.81566,-0.069 -3.65236,0.14731 -5.45273,-0.12719 -1.59329,-0.38778 -3.21206,-0.59666 -4.84433,-0.71273 -0.89491,-0.0551 -1.79139,-0.0704 -2.68756,-0.0875 0,0 2.22478,-1.62382 2.22478,-1.62382 l 0,0 c 0.89962,0.0195 1.79959,0.0374 2.69767,0.0984 1.63606,0.1273 3.25382,0.36127 4.85575,0.72561 1.7977,0.22003 3.61982,0.0401 5.42723,0.0996 1.98059,0.002 3.96117,0.006 5.94176,0.007 2.76368,9.4e-4 5.52763,-7.6e-4 8.29076,-0.0635 3.7513,-0.10068 7.50057,-0.27614 11.23966,-0.60671 3.74357,-0.27671 7.48498,-0.29874 11.23777,-0.24577 2.59777,2e-5 5.19919,0.0228 7.79237,-0.15891 3.31733,-0.28594 6.59393,-0.85308 9.787,-1.82759 3.73752,-1.09482 7.51124,-2.0829 11.20185,-3.32653 2.20795,-0.78554 4.52429,-1.37843 6.88609,-1.21288 1.53756,0.15414 3.11389,0.35687 4.14282,1.65359 0.8946,1.44858 1.67695,2.98466 2.17483,4.62033 0.60533,2.59277 1.2676,5.18808 1.0985,7.88131 -0.007,4.04995 -0.0113,8.0999 -0.0141,12.14986 -0.003,5.21922 -0.004,10.43845 0.004,15.65767 0.008,4.34638 0.0271,8.69287 -9.3e-4,13.03921 -0.0266,2.20575 0.0139,4.44555 -0.4777,6.6084 -0.38575,1.41214 -0.77568,2.88167 -1.47421,4.16133 -1.22694,1.3135 -0.297,0.40804 -3.37452,2.23755 -0.58486,0.34768 1.15987,-0.71225 1.74859,-1.05325 0.19444,-0.11263 -0.37306,0.25138 -0.56529,0.36784 -2.93983,1.78084 -1.93262,1.28917 -3.56816,2.04252 -1.49295,0.63041 -3.06349,1.03022 -4.6646,1.26124 -1.86396,0.32793 -3.74044,0.30601 -5.61818,0.51494 -1.62559,0.23592 -3.22555,0.7134 -4.87761,0.68197 -1.77304,0.0391 -3.5506,0.097 -5.30569,0.37595 -2.02465,0.33259 -4.03274,0.71097 -6.09859,0.54176 -2.08569,9.4e-4 -4.17138,0.006 -6.25707,0.004 -1.85465,1e-5 -3.70928,3e-5 -5.56392,-7e-5 -1.91153,-1.4e-4 -3.82306,-4e-4 -5.73459,-9.4e-4 -2.20767,-9.2e-4 -4.41534,-0.003 -6.62301,1.7e-4 -2.37747,-2.3e-4 -4.75493,9.3e-4 -7.13238,0.004 -2.48547,9.4e-4 -4.9713,0.014 -7.45647,-0.0314 -2.11814,-0.0708 -4.23518,-0.21059 -6.32781,-0.56669 -2.60382,-0.42498 -5.20664,-0.7955 -7.8363,-1.02095 -2.08736,-0.24764 -4.16692,-0.28034 -6.26766,-0.22994 -1.73342,-0.0166 -3.49825,0.002 -5.18339,-0.46308 -1.51223,-0.59303 -2.31938,-1.58899 -2.90799,-3.10951 -0.5886,-1.70615 -1.26286,-3.38409 -1.11268,-5.23746 0,-1.87311 0,-3.74622 0,-5.61933 0,-1.87316 0,-3.74631 0,-5.61947 0,-1.87312 1e-5,-3.74624 0,-5.61937 -1e-5,-1.87044 -3e-5,-3.74088 -7e-5,-5.61132 -5e-5,-1.86163 -1.5e-4,-3.72326 8e-5,-5.58489 4.2e-4,-1.99758 9.3e-4,-3.99517 0.005,-5.99276 0.006,-3.11192 0.0152,-6.22383 0.0145,-9.33576 9.3e-4,-3.63988 0.007,-7.27985 -0.0223,-10.91964 0,0 2.45175,-1.2603 2.45175,-1.2603 z"
       inkscape:connector-curvature="0" />
    <path
       style="fill:#000000;stroke:#000000;stroke-opacity:1"
       id="path4184"
       d="m 261.32052,318.52669 c -0.0249,3.36407 -0.0198,6.72833 -0.0166,10.09248 0.002,0.44619 0.004,0.8924 0.007,1.33859 0.002,0.29144 -0.0162,0.58393 0.009,0.87429 0.015,0.17339 0.0479,0.34793 0.11081,0.51021 0.0217,0.0561 0.18827,0.0955 0.13383,0.12108 -2.6574,1.24861 -2.63394,1.50598 -1.91344,0.26335 0.72955,-2.04263 1.58739,-4.02146 2.57099,-5.95314 0.57596,-1.27418 1.45632,-2.1925 2.5945,-2.9622 0,0 2.75938,-1.07253 2.75938,-1.07253 l 0,0 c -1.1747,0.69814 -2.08071,1.5487 -2.66167,2.81934 -0.98573,1.92772 -1.90386,3.88107 -2.55467,5.95327 -2.91489,5.80463 -3.93212,2.36314 -3.66335,-0.56354 0.003,-3.35849 0.008,-6.7171 -0.0166,-10.07552 0,0 2.64104,-1.34568 2.64104,-1.34568 z"
       inkscape:connector-curvature="0" />
    <path
       style="fill:#000000;stroke:#000000;stroke-opacity:1"
       id="path4186"
       d="m 276.32281,320.4059 c -0.0183,2.53837 -0.0121,5.07685 -0.01,7.61527 0,0 -2.626,1.33801 -2.626,1.33801 l 0,0 c 0.002,-2.53508 0.009,-5.07023 -0.01,-7.60527 0,0 2.64562,-1.34801 2.64562,-1.34801 z"
       inkscape:connector-curvature="0" />
    <path
       style="fill:#000000;stroke:#000000;stroke-opacity:1"
       id="path4188"
       d="m 264.32052,388.52669 c -0.0311,3.55084 -0.0195,7.10186 -0.0181,10.65278 0.003,2.73923 0.009,5.47846 0.0126,8.21769 0.004,1.80292 0.47028,2.11871 -2.64057,2.20057 -0.23767,0.006 0.002,-0.4755 0.003,-0.71326 8.3e-4,-0.27242 10e-4,-0.54485 0.002,-0.81727 -0.20461,-2.0661 0.32018,-3.72925 1.42759,-5.45037 1.25891,-1.87948 2.93506,-3.47161 4.84014,-4.68428 0.24334,-0.16222 0.48668,-0.32445 0.73002,-0.48667 0,0 2.75784,-1.08137 2.75784,-1.08137 l 0,0 c -0.24272,0.16693 -0.48544,0.33386 -0.72815,0.50079 -1.93323,1.13291 -3.62173,2.72489 -4.89407,4.56763 -1.14322,1.6553 -1.70489,3.25345 -1.49153,5.28818 6.7e-4,0.27175 0.001,0.54349 0.002,0.81524 7.2e-4,0.23685 0.17075,0.54368 0.003,0.71054 -3.22936,3.20589 -2.61509,2.46426 -2.64057,0.49031 0.003,-2.7435 0.009,-5.487 0.0126,-8.23049 10e-4,-3.54478 0.0131,-7.08965 -0.0181,-10.63434 0,0 2.64104,-1.34568 2.64104,-1.34568 z"
       inkscape:connector-curvature="0" />
    <path
       style="fill:#000000;stroke:#000000;stroke-opacity:1"
       id="path4190"
       d="m 285.74507,397.0645 c 1.53536,1.71692 2.60272,3.76925 2.99219,6.03893 -0.16756,3.20468 -4.19147,4.03724 -6.79051,4.7968 -1.86142,0.85236 -4.16745,0.46498 -6.01304,1.28917 0.94988,-0.57167 1.85237,-1.23073 2.84965,-1.715 0.29677,-0.14412 4.62565,0.0482 5.15782,0.0476 3.73372,-0.0105 7.46746,-0.009 11.20119,-0.0114 3.6818,-0.002 7.36359,-0.007 11.04539,-0.0118 0.44501,-5.8e-4 0.89003,-0.001 1.33504,-0.002 0,0 -2.38084,1.72979 -2.38084,1.72979 l 0,0 c -0.44344,-5.7e-4 -0.88687,-10e-4 -1.33031,-0.002 -3.67374,-0.005 -7.34749,-0.009 -11.02123,-0.005 -3.74239,0.004 -7.48477,0.0137 -11.22713,0.0308 -1.22237,0.005 -2.44522,0.0171 -3.66758,0.003 -0.3,-0.004 -0.6001,-0.006 -0.89989,-0.0177 -0.21611,-0.008 -0.77014,0.13572 -0.64743,-0.0424 0.50623,-0.73472 1.29616,-1.22651 1.94425,-1.83976 1.97578,-0.48533 4.04521,-0.57987 5.98209,-1.24928 0.66008,-0.19885 5.00505,-1.70646 0.84416,0.23073 -0.71567,0.3332 1.80533,-1.35382 1.00457,-1.84704 -0.32564,-2.21954 -1.39405,-4.22434 -2.91159,-5.87086 0,0 2.5332,-1.55235 2.5332,-1.55235 z"
       inkscape:connector-curvature="0" />
    <path
       style="fill:#000000;stroke:#000000;stroke-opacity:1"
       id="path4192"
       d="m 194.08121,268.23484 c -2.36405,-0.0368 -4.73678,-0.14406 -7.00688,0.60412 0.60427,-0.33399 1.16587,-0.76084 1.81283,-1.00197 0.24316,-0.0906 -0.401,0.33468 -0.56407,0.53654 -0.7232,0.89524 -0.83357,2.09437 -0.9613,3.18846 -0.22426,1.64088 0.28198,3.06682 1.59368,4.07385 1.55233,0.80494 3.34409,0.81228 5.05252,0.8683 1.99754,0.0349 3.99554,0.0131 5.99322,0.004 0.33474,-0.001 0.66947,-0.003 1.0042,-0.004 0,0 -2.3915,1.73906 -2.3915,1.73906 l 0,0 c -0.33469,10e-4 -0.66939,0.003 -1.00408,0.004 -2.00045,0.01 -4.00139,0.0322 -6.00156,-0.0125 -1.76053,-0.0697 -3.60337,-0.1063 -5.16659,-1.01864 -1.3414,-1.10206 -1.95418,-2.59337 -1.732,-4.33843 0.36414,-3.61317 1.10843,-4.06245 4.70499,-5.84695 2.31021,-0.64914 4.68809,-0.55713 7.06871,-0.54082 0,0 -2.40217,1.74527 -2.40217,1.74527 z"
       inkscape:connector-curvature="0" />
    <path
       style="fill:#000000;stroke:#000000;stroke-opacity:1"
       id="path4194"
       d="m 213.10382,255.44916 c -0.94824,3.15934 -1.28706,6.45858 -1.56724,9.73266 -0.19126,2.43569 -0.22258,4.87927 -0.2332,7.32113 -0.002,1.34639 0.002,2.69277 0.006,4.03915 0,0 -2.63463,1.3432 -2.63463,1.3432 l 0,0 c -0.003,-1.34738 -0.007,-2.69477 -0.004,-4.04216 0.0123,-2.45261 0.0472,-4.90689 0.24338,-7.35301 0.28441,-3.28592 0.63054,-6.58943 1.50427,-9.77947 0,0 2.68611,-1.2615 2.68611,-1.2615 z"
       inkscape:connector-curvature="0" />
    <path
       style="fill:#000000;stroke:#000000;stroke-opacity:1"
       id="path4196"
       d="m 289.08121,261.23484 c -2.36405,-0.0368 -4.73678,-0.14406 -7.00688,0.60412 0.54479,-0.48819 -2.08773,0.97812 -1.55704,0.75291 0.67276,-0.2855 1.26933,-0.75096 1.96712,-0.96826 0.23706,-0.0738 -0.36415,0.33841 -0.53202,0.52136 -0.491,0.53511 -0.46746,0.57138 -0.83384,1.19682 -0.71668,1.62642 -0.74585,3.42963 -0.80246,5.17669 -0.16679,1.74091 0.39959,3.25838 1.25243,4.733 1.4872,1.91179 3.61836,2.90801 5.89151,3.55248 2.42278,0.57317 4.91599,0.66562 7.39399,0.71157 0.97882,0.0925 1.83784,-0.0271 2.7178,-0.44642 0.22853,-0.1089 0.89821,-0.46753 0.67459,-0.34886 -2.22528,1.18086 -2.49619,1.53724 -1.3941,0.4901 0.7967,-0.92688 1.35661,-2.01342 2.01123,-3.03709 0,0 2.71073,-1.18909 2.71073,-1.18909 l 0,0 c -0.68053,1.02025 -1.22601,2.11963 -1.98144,3.0922 -1.89909,1.96839 -4.40669,3.29966 -7.13097,3.1695 -2.49233,-0.0586 -4.99946,-0.17351 -7.42949,-0.78113 -2.33238,-0.69691 -4.5083,-1.75733 -6.03098,-3.73031 -0.88231,-1.5144 -1.48396,-3.08941 -1.32535,-4.88077 0.0497,-1.78377 0.0764,-3.6144 0.73364,-5.29936 1.19692,-2.307 3.61518,-3.65704 6.00499,-4.52391 2.31021,-0.64914 4.68809,-0.55713 7.06871,-0.54082 0,0 -2.40217,1.74527 -2.40217,1.74527 z"
       inkscape:connector-curvature="0" />
    <path
       style="fill:#000000;stroke:#000000;stroke-opacity:1"
       id="path4198"
       d="m 311.03633,254.49107 c 2.50279,-0.0592 5.00268,-0.18721 6.97601,1.54807 1.15318,1.52139 1.39228,3.46758 1.24327,5.32336 -0.11153,1.76805 -1.24503,2.62747 -2.6351,3.48677 -1.587,1.37353 -3.04261,1.5868 -4.7484,2.27886 -0.23954,0.0972 -0.48565,0.17816 -0.72284,0.28098 -0.17598,0.0763 -0.68172,0.35135 -0.51542,0.2558 0.76542,-0.43983 1.54234,-0.85934 2.3135,-1.28901 0.90868,0.0405 2.08865,0.10054 3.08377,0.11829 1.98078,0.0191 3.96171,0.009 5.94255,0.006 0,0 -2.39161,1.73833 -2.39161,1.73833 l 0,0 c -1.98349,0.004 -3.9671,0.014 -5.95052,-0.007 -0.98779,-0.02 -2.92784,0.29379 -3.45355,-0.73581 1.60566,-0.97106 2.48297,-1.60205 4.02581,-2.20122 0.91007,-0.35343 1.58186,-0.60247 1.48976,-0.52554 -0.55548,0.46399 -1.22867,0.76533 -1.84301,1.14799 1.36137,-0.77084 2.60801,-1.52685 2.75232,-3.23433 0.20353,-1.74988 -0.0229,-3.63483 -1.10341,-5.0773 -1.94261,-1.64502 -4.44838,-1.41604 -6.86115,-1.37106 0,0 2.39802,-1.74227 2.39802,-1.74227 z"
       inkscape:connector-curvature="0" />
    <path
       style="fill:#000000;stroke:#000000;stroke-opacity:1"
       id="path4200"
       d="m 348.32281,334.4059 c -0.0177,3.17835 -0.0217,6.35678 -0.0245,9.53517 -0.002,3.58024 0.003,7.16047 0.0103,10.7407 -6e-5,2.55994 0.004,5.11987 0.007,7.67981 0.002,2.05617 0.002,4.11233 0.002,6.1685 1.1e-4,1.9948 6e-5,3.98961 4e-5,5.98441 -2e-5,1.9988 -3e-5,3.99759 -3e-5,5.99638 0.16578,1.59728 0.50389,3.16034 1.35716,4.53401 1.05376,1.05291 2.48366,1.57803 3.81881,2.17748 1.69059,0.71548 3.50898,0.95277 5.25701,1.48551 1.72832,0.53095 3.53353,0.65573 5.32816,0.74005 2.01511,0.0675 4.03176,0.0553 6.04769,0.0562 3.03986,0.44479 6.02879,1.16016 9.0844,1.5576 3.12823,0.35556 6.27853,0.40864 9.42327,0.44143 2.59336,0.0143 5.1868,0.006 7.78018,0 2.91184,-0.005 5.82368,-9.3e-4 8.73553,-0.002 3.55269,-0.19351 7.07746,-0.63414 10.54819,-1.41514 1.92653,-0.68301 3.94356,-1.14585 5.82663,-1.95106 0.40454,-0.17298 1.55066,-0.82285 1.19032,-0.5704 -0.46768,0.32766 -1.01047,0.53225 -1.51571,0.79837 2.0746,-1.67266 3.11195,-4.11394 3.84855,-6.60359 0.56316,-2.40706 0.62507,-4.88706 0.66245,-7.34709 0.0136,-2.60879 8.5e-4,-5.21764 -0.007,-7.82642 -0.018,-2.88186 -0.95561,-5.44111 -2.25486,-7.96184 -1.61414,-3.15309 -3.85,-5.92216 -5.93275,-8.76996 -1.31717,-1.98811 -2.70442,-3.92612 -4.10636,-5.85331 -0.76147,-1.36797 -1.85466,-2.36701 -3.03684,-3.34383 -1.27344,-0.80538 -2.73449,-1.39883 -4.18523,-1.81711 -2.50664,-0.53574 -4.89681,-1.43469 -7.41194,-1.95062 -2.94532,-0.53661 -5.94562,-0.60602 -8.93055,-0.66075 -3.29258,-0.0339 -6.58547,-0.0229 -9.87817,-0.016 -3.1037,0.005 -6.20741,0.009 -9.31111,0.0138 -2.22894,0.003 -4.45788,0.004 -6.68683,0.005 -1.99854,3.3e-4 -3.99708,2.6e-4 -5.99562,2.3e-4 -1.99633,-4e-5 -3.99266,-6e-5 -5.98899,-7e-5 -1.99979,0 -3.99958,0 -5.99937,0 0,0 2.39238,-1.73817 2.39238,-1.73817 l 0,0 c 1.9998,0 3.99959,0 5.99939,-1e-5 1.99637,0 3.99274,-2e-5 5.98911,-2e-5 1.99825,1e-5 3.99649,1e-5 5.99474,4.2e-4 2.22514,5.6e-4 4.45029,0.002 6.67543,0.003 3.09969,0.002 6.19938,4.7e-4 9.29906,-0.005 3.29578,-0.004 6.59173,-0.0226 9.88738,0.0168 2.99725,0.0595 6.01012,0.1431 8.96388,0.70422 2.51984,0.5339 4.92938,1.42033 7.4467,1.957 1.47645,0.45593 2.97783,1.04075 4.25642,1.91152 1.20599,0.98663 2.28784,2.03715 3.06874,3.41365 1.38861,1.93556 2.77337,3.87357 4.08029,5.86723 2.0828,2.86609 4.31781,5.65245 5.95876,8.80651 1.32886,2.55653 2.29156,5.15602 2.32391,8.08291 0.008,2.60833 0.0319,5.21667 0.022,7.825 -0.0368,2.48351 -0.10176,4.98384 -0.63326,7.42052 -0.71914,2.53177 -1.74125,5.01667 -3.76263,6.79573 -1.17824,0.70163 -2.33846,1.43445 -3.53473,2.10488 -2.17041,1.21637 -4.73085,1.60744 -7.04149,2.45858 -3.48741,0.75587 -7.02618,1.19886 -10.5918,1.36835 -2.916,4.1e-4 -5.83199,0.006 -8.74798,0.0116 -2.59108,0.004 -5.18223,0.0148 -7.77324,-0.01 -3.15053,-0.04 -6.30661,-0.10034 -9.439,-0.47351 -3.04755,-0.41098 -6.03382,-1.15013 -9.0799,-1.51289 -2.02077,0.004 -4.04248,0.0125 -6.06216,-0.0642 -1.81252,-0.096 -3.63192,-0.24584 -5.37317,-0.79692 -1.75644,-0.53006 -3.59119,-0.76382 -5.27768,-1.51555 -1.39059,-0.60932 -2.86137,-1.19397 -3.91725,-2.32581 -0.87598,-1.42582 -1.24444,-3.02908 -1.42531,-4.68355 0,-1.99878 -10e-6,-3.99757 -3e-5,-5.99635 -2e-5,-1.99482 -7e-5,-3.98963 4e-5,-5.98445 1.8e-4,-2.05693 4.9e-4,-4.11386 0.002,-6.17079 0.002,-2.56217 0.007,-5.12434 0.007,-7.68651 0.007,-3.58373 0.0126,-7.16746 0.0103,-10.75119 -0.003,-3.17007 -0.007,-6.34017 -0.0245,-9.51019 0,0 2.64562,-1.34801 2.64562,-1.34801 z"
       inkscape:connector-curvature="0" />
    <path
       style="fill:#000000;stroke:#000000;stroke-opacity:1"
       id="path4202"
       d="m 380.08121,251.23484 c -1.64137,0.0864 -3.32662,-0.20073 -4.953,0.12491 -0.33941,0.0679 -1.25448,0.53331 -0.99169,0.30802 0.51301,-0.43981 1.18326,-0.65298 1.77489,-0.97947 -1.44306,1.17576 -2.07835,2.79104 -2.61679,4.51549 -0.73549,3.02123 -0.8461,6.1457 -0.94615,9.23981 0.11717,2.47395 -0.47299,5.09669 0.34014,7.4844 0.89582,1.66044 2.38201,2.72488 4.23186,3.02829 1.26765,-0.0662 5.65989,-2.63802 1.21838,-0.28991 1.18808,-0.82508 2.06153,-2.01305 2.73078,-3.28059 0.96258,-1.27617 1.25373,-2.80032 1.71783,-4.28324 0,0 2.68414,-1.26203 2.68414,-1.26203 l 0,0 c -0.50699,1.4724 -0.68157,3.06123 -1.69772,4.32236 -0.62128,1.30043 -1.49763,2.55525 -2.67876,3.39844 -1.94173,1.21265 -4.00267,2.93383 -6.40604,3.09075 -1.91527,-0.43236 -3.46169,-1.53768 -4.39389,-3.29305 -0.8346,-2.42716 -0.26336,-5.07441 -0.36216,-7.59305 0.0937,-3.11291 0.21054,-6.25084 0.89562,-9.30045 0.51466,-1.77958 1.14465,-3.41168 2.51841,-4.71501 1.11047,-0.62839 2.18728,-1.32039 3.33142,-1.88516 1.79666,-0.88687 4.10851,-0.11762 6.0049,-0.37578 0,0 -2.40217,1.74527 -2.40217,1.74527 z"
       inkscape:connector-curvature="0" />
    <path
       style="fill:#000000;stroke:#000000;stroke-opacity:1"
       id="path4204"
       d="m 390.43093,250.38425 c 0.39484,2.52796 0.61871,5.07668 0.76578,7.62962 0.19459,1.8506 -0.0636,3.50377 -1.16606,4.99937 -0.36274,0.5657 0.32434,0.38593 0.70166,0.46711 0.4092,0.0881 0.80014,0.24618 1.20163,0.36453 1.52448,0.30461 2.77771,0.97469 3.6027,2.30215 0.68463,1.48296 0.75653,3.0434 -0.16299,4.41923 -2.03959,1.74509 -4.53415,2.87262 -7.06814,3.70683 -0.34402,0.13746 -0.68805,0.27491 -1.03207,0.41236 0,0 2.32185,-1.82336 2.32185,-1.82336 l 0,0 c 0.3477,-0.13401 0.69541,-0.26801 1.04311,-0.40202 1.66918,-0.56943 3.1848,-1.67223 0.21586,0.44172 -1.79783,1.28009 3.75392,-2.36564 1.79092,-1.16027 1.02183,-1.20142 0.95364,-2.70214 0.32545,-4.10135 -0.79374,-1.26812 -2.05102,-1.81357 -3.48965,-2.11755 -0.71494,-0.20716 -2.55136,-0.24833 -2.18364,-1.33175 1.26776,-1.65605 1.43177,-2.69627 1.28094,-4.82439 -0.13728,-2.54061 -0.34259,-5.08035 -0.76997,-7.59091 0,0 2.62262,-1.39132 2.62262,-1.39132 z"
       inkscape:connector-curvature="0" />
    <path
       style="fill:#000000;stroke:#000000;stroke-opacity:1"
       id="path4206"
       d="m 431.91879,334.48957 c 2.81688,0.0109 5.63381,0.01 8.45072,0.0122 4.13643,0.006 8.27286,0.006 12.40929,0.005 2.4091,5.7e-4 4.81819,-0.003 7.22728,-0.007 0,0 -2.37343,1.72439 -2.37343,1.72439 l 0,0 c -2.40289,-0.003 -4.80578,-0.007 -7.20867,-0.007 -4.14105,-10e-4 -8.2821,-10e-4 -12.42314,0.005 -2.82807,0.002 -5.65617,0.001 -8.48422,0.0122 0,0 2.40217,-1.74527 2.40217,-1.74527 z"
       inkscape:connector-curvature="0" />
    <path
       style="fill:#000000;stroke:#000000;stroke-opacity:1"
       id="path4208"
       d="m 433.11056,329.51175 c -1.60755,0.60361 -3.36692,0.69178 -4.96439,1.3194 -0.34404,0.13516 -1.32328,0.65955 -0.99363,0.49233 0.58203,-0.29523 1.16718,-0.58426 1.75077,-0.8764 -1.49193,1.38811 -0.71521,2.83527 0.0811,4.38342 1.4673,2.21136 2.64964,4.6284 4.5718,6.48689 1.12013,1.13002 2.31074,2.13791 3.66276,2.97339 0,0 -2.48245,1.59892 -2.48245,1.59892 l 0,0 c -1.35313,-0.86441 -2.5588,-1.88727 -3.68813,-3.03148 -1.92504,-1.89914 -3.1372,-4.32735 -4.62793,-6.56232 -0.84842,-1.61119 -1.70921,-3.21067 -0.26531,-4.75419 1.10244,-0.68567 2.18464,-1.40499 3.3073,-2.057 1.82137,-1.05781 4.06919,-0.99904 5.99158,-1.79359 0,0 -2.34347,1.82063 -2.34347,1.82063 z"
       inkscape:connector-curvature="0" />
    <text
       xml:space="preserve"
       style="font-style:normal;font-weight:normal;font-size:16.25px;line-height:125%;font-family:sans-serif;letter-spacing:0px;word-spacing:0px;fill:#000000;fill-opacity:1;stroke:none;stroke-width:1px;stroke-linecap:butt;stroke-linejoin:miter;stroke-opacity:1"
       x="470"
       y="342.36221"
       id="text4210"
       sodipodi:linespacing="125%"><tspan
         sodipodi:role="line"
         id="tspan4212"
         x="470"
         y="342.36221">offset</tspan></text>
    <path
       style="fill:#000000;stroke:#000000;stroke-opacity:1"
       id="path4214"
       d="m 230.32281,496.4059 c -0.0299,3.93502 -0.0296,7.87021 -0.0338,11.80532 -10e-4,3.00424 0.003,6.00847 0.009,9.0127 0,0 -2.5969,1.32319 -2.5969,1.32319 l 0,0 c 0.006,-3.00743 0.0106,-6.01487 0.009,-9.02231 -0.004,-3.92364 -0.004,-7.84735 -0.0338,-11.77089 0,0 2.64562,-1.34801 2.64562,-1.34801 z"
       inkscape:connector-curvature="0" />
    <path
       style="fill:#000000;stroke:#000000;stroke-opacity:1"
       id="path4218"
       d="m 231.88944,496.21266 c 4.25315,-1.13916 8.69445,-1.2784 13.06906,-1.47548 8.37044,-0.25168 16.74635,-0.20117 25.11954,-0.20541 9.19791,0.004 18.39581,0.005 27.59371,-0.0142 3.48634,-0.008 6.97268,-0.0183 10.45903,-0.0228 1.98685,-0.002 3.97369,-0.002 5.96054,-0.002 2.55725,-0.14097 3.49444,0.10019 5.3835,1.83656 2.12893,2.22901 3.13973,5.12047 3.91326,8.04003 0.6459,2.89498 0.83606,5.8587 0.92696,8.81479 -0.20345,3.78748 -1.31767,3.79094 -4.74221,5.66873 -2.24532,0.53456 -4.59107,0.41203 -6.8833,0.41585 -3.38935,-0.0122 -6.77866,-0.0296 -10.16802,-0.0382 -3.64169,-0.01 -7.28339,-0.008 -10.92508,-0.009 -3.51971,-0.003 -7.03941,10e-4 -10.55912,0.002 -3.07632,10e-4 -6.15265,0.003 -9.22898,0.002 -3.56297,-0.002 -7.12593,-0.004 -10.6889,-0.005 -4.72591,-0.007 -9.45183,-0.006 -14.17774,-0.007 -4.7336,-0.004 -9.4672,-9.2e-4 -14.20079,0.007 -2.59788,0.005 -5.19576,0.009 -7.79365,0.0106 -1.99774,9.7e-4 -3.99547,8.8e-4 -5.99321,8.6e-4 -1.32228,-3e-5 -0.66083,-2e-5 -1.98436,-5e-5 0,0 2.39262,-1.73833 2.39262,-1.73833 l 0,0 c 1.32373,-4e-5 0.662,-2e-5 1.98448,-5e-5 1.99695,-2e-5 3.99389,-1.1e-4 5.99084,8.6e-4 2.58818,0.002 5.17635,0.005 7.76452,0.0106 4.72677,0.008 9.45355,0.0111 14.18032,0.007 4.7324,-10e-4 9.46479,2.2e-4 14.19718,-0.007 3.56762,-9.5e-4 7.13524,-0.003 10.70286,-0.005 3.07483,-9.1e-4 6.14966,3.8e-4 9.22448,0.001 3.51809,1.6e-4 7.03618,0.004 10.55427,0.002 3.64196,3.3e-4 7.28393,0.004 10.92588,0.01 3.3926,0.009 6.78518,0.0238 10.17779,0.0292 2.27548,-0.009 4.63032,0.12234 6.83416,-0.53097 -0.61376,0.3874 -1.22232,0.78318 -1.84129,1.1622 -0.2041,0.12498 0.41957,-0.23847 0.5963,-0.39984 0.9022,-0.82377 0.90437,-2.12494 1.03838,-3.24351 -0.0761,-2.93788 -0.24248,-5.88541 -0.87877,-8.76402 -0.75075,-2.86463 -1.73961,-5.71334 -3.84745,-7.88221 -1.85263,-1.6554 -2.81391,-1.77001 -5.26825,-1.65193 -1.98497,1.1e-4 -3.96994,4.1e-4 -5.95491,-0.002 -3.46159,-0.006 -6.92316,-0.0189 -10.38473,-0.0313 -9.17641,-0.0301 -18.35284,-0.0416 -27.5293,-0.0321 -8.39603,0.012 -16.79523,-0.006 -25.18766,0.27117 -4.38658,0.21258 -8.85059,0.36561 -13.09543,1.59603 0,0 2.34347,-1.82062 2.34347,-1.82062 z"
       inkscape:connector-curvature="0" />
    <path
       style="fill:#000000;stroke:#000000;stroke-opacity:1"
       id="path4222"
       d="m 232.32052,528.52669 c -0.0491,5.47713 -0.0464,10.95459 -0.0476,16.43189 0.004,5.23476 0.011,10.46951 0.0259,15.70424 0.0103,2.76714 0.0162,5.53426 0.012,8.30141 -0.001,2.86094 -0.004,5.72187 -9.7e-4,8.58281 -0.0604,2.3311 0.44931,4.62371 0.72334,6.92931 0.22391,2.04814 0.26139,4.10962 0.27952,6.16786 -0.12264,2.51351 0.15007,4.99156 0.44589,7.48152 0.20992,1.68888 0.33803,3.38549 0.43996,5.0837 0,0 -2.6203,1.35431 -2.6203,1.35431 l 0,0 c -0.0951,-1.69441 -0.21533,-3.38749 -0.4228,-5.07253 -0.2985,-2.49817 -0.60506,-4.98076 -0.47177,-7.50404 -0.0241,-2.04816 -0.0519,-4.09973 -0.26755,-6.1387 -0.26756,-2.31896 -0.78329,-4.62392 -0.72601,-6.96661 0.003,-2.86061 4.8e-4,-5.72122 -9.7e-4,-8.58182 -0.004,-2.77122 0.002,-5.54241 0.012,-8.31361 0.0149,-5.24355 0.0218,-10.48711 0.0259,-15.73068 -0.001,-5.46113 0.002,-10.92243 -0.0476,-16.38338 0,0 2.64104,-1.34568 2.64104,-1.34568 z"
       inkscape:connector-curvature="0" />
    <path
       style="fill:#000000;stroke:#000000;stroke-opacity:1"
       id="path4224"
       d="m 234.91879,526.48957 c 2.53376,0.0121 5.06758,0.008 7.60136,0.006 2.16581,-0.002 4.33163,-0.002 6.49744,-0.003 1.98549,0.10279 2.71824,1.41028 3.11294,3.17078 0.28002,1.92188 0.23406,3.87246 0.22569,5.80934 -0.0156,2.01086 -0.0272,4.02173 -0.0335,6.03263 -0.004,2.13742 -0.006,4.27483 -0.011,6.41224 -0.006,2.75442 4.7e-4,5.50885 -0.001,8.26328 5.4e-4,2.40985 0.004,4.81971 0.005,7.22956 0.001,2.52697 -0.007,5.05394 -0.007,7.58091 -0.001,2.89896 -9.1e-4,5.79791 0.002,8.69686 0.003,2.66383 -0.001,5.32765 4.8e-4,7.99148 -0.003,2.54265 10e-4,5.0853 0.004,7.62794 0.002,2.07279 0.002,4.14557 0.002,6.21836 -0.0784,1.88562 0.27165,3.82647 -0.37524,5.63245 -1.57862,2.22312 -4.38814,2.91879 -6.95918,3.07531 -1.99092,0.068 -3.98364,0.0343 -5.97522,0.0202 -2.00742,-0.0147 -4.0149,-0.0192 -6.02237,-0.022 -1.86616,0.0325 -3.7197,0.12364 -5.46594,-0.61797 -0.74442,-0.59093 -0.44868,-0.25945 -0.92196,-0.96229 0,0 2.56774,-1.50541 2.56774,-1.50541 l 0,0 c 0.40167,0.60323 0.14301,0.31696 0.8198,0.81711 1.73521,0.66319 3.56274,0.54834 5.39294,0.53078 2.00773,0.003 4.01546,0.008 6.02314,0.0234 1.98794,0.0138 3.9777,0.0493 5.96438,-0.0401 0.67317,-0.0519 1.14953,-0.0691 1.81133,-0.19559 0.27202,-0.052 1.00617,-0.39072 0.80672,-0.19859 -0.52194,0.50279 -1.22741,0.77159 -1.82585,1.18034 -0.19646,0.13419 0.43179,-0.20863 0.6187,-0.35582 0.18094,-0.14249 0.31523,-0.33585 0.47285,-0.50377 0.77023,-1.73527 0.33134,-3.68614 0.43346,-5.53569 2.5e-4,-2.07364 6.8e-4,-4.14727 0.002,-6.2209 0.002,-2.5439 0.006,-5.08779 0.004,-7.63169 0.002,-2.66399 -0.002,-5.32798 4.8e-4,-7.99197 0.003,-2.89962 0.003,-5.79925 0.002,-8.69887 -6e-4,-2.52456 -0.008,-5.04911 -0.007,-7.57367 0.002,-2.41164 0.005,-4.82327 0.005,-7.23491 -0.002,-2.75396 0.004,-5.50793 -0.002,-8.26189 -0.005,-2.13584 -0.007,-4.27169 -1.3e-4,-6.40753 0.006,-2.01105 0.0172,-4.02206 0.0333,-6.03306 0.009,-1.91632 0.0556,-3.84485 -0.20188,-5.74842 -0.35536,-1.67363 -1.01231,-2.79511 -2.89318,-2.83523 -2.16336,-4e-4 -4.32672,-0.001 -6.49008,-0.003 -2.53972,-0.002 -5.07947,-0.006 -7.61917,0.006 0,0 2.40217,-1.74527 2.40217,-1.74527 z"
       inkscape:connector-curvature="0" />
    <path
       style="fill:#000000;stroke:#000000;stroke-opacity:1"
       id="path4226"
       d="m 262.32281,532.4059 c -0.0183,2.53837 -0.0121,5.07685 -0.01,7.61527 0.0822,2.11433 -0.15295,4.25158 0.1168,6.3536 0.45531,1.56138 2.04809,1.87044 3.40703,2.38178 1.29104,0.9357 2.84685,1.16405 4.30591,1.67948 1.53558,0.43082 3.02647,0.97141 4.54853,1.44642 1.68645,0.41008 3.40196,0.47881 5.08599,0.90024 1.70572,0.29926 3.29553,0.94719 4.99457,1.28064 2.55212,0.24044 5.07148,0.71412 7.61251,1.04626 2.19745,0.27662 4.41208,0.34422 6.62411,0.37947 2.24956,0.0193 4.49928,0.0155 6.74891,0.014 3.04828,-10e-4 6.09656,-0.002 9.14483,-0.002 2.93999,-0.004 5.87998,-0.003 8.81997,-9e-4 3.66647,0.002 7.33295,0.005 10.99942,0.005 3.58179,0.004 7.16358,-0.005 10.74537,-0.006 2.49201,-0.002 4.98402,-0.004 7.47603,-0.006 1.60917,-0.15481 3.13637,-0.77005 4.50965,-1.60646 1.87164,-1.03539 -0.90874,0.50672 -1.32667,0.69736 -0.21704,0.099 0.39342,-0.2706 0.58016,-0.41904 0.60595,-0.48169 0.94655,-0.97409 1.30433,-1.65141 0.5877,-1.50193 1.11845,-2.99118 1.39706,-4.5833 0.26031,-1.89108 0.26736,-3.80446 0.28346,-5.7097 0.0666,-1.9088 0.15392,-3.47137 -0.71342,-5.20278 -0.9349,-1.38047 -2.55829,-1.55356 -4.09029,-1.7145 -1.95619,-0.1345 -3.91905,-0.10564 -5.87853,-0.0973 -2.54201,0.0129 -5.08406,0.0128 -7.62609,0.0159 -3.00557,0.002 -6.01113,10e-4 -9.01669,0.002 -3.04672,-5.4e-4 -6.09343,3.4e-4 -9.14014,-0.002 -3.3019,-7.3e-4 -6.6038,-3.9e-4 -9.9057,-0.001 -3.86167,-0.004 -7.72333,-0.004 -11.585,-0.003 -3.95441,-10e-4 -7.90882,-10e-4 -11.86324,-3.9e-4 -3.24676,0.003 -6.49353,0.004 -9.74029,0.006 -2.37192,0.002 -4.74384,0.004 -7.11577,0.005 -2.01597,6.8e-4 -4.03194,7e-4 -6.04791,7.3e-4 -0.33211,0 -0.66423,0 -0.99635,0 0,0 2.39251,-1.73825 2.39251,-1.73825 l 0,0 c 0.33211,0 0.66423,0 0.99634,0 2.0153,3e-5 4.0306,5e-5 6.0459,7.3e-4 2.36739,9.7e-4 4.73479,0.003 7.10218,0.005 3.24102,0.002 6.48205,0.004 9.72307,0.006 3.95477,7.9e-4 7.90954,9.5e-4 11.86431,-3.9e-4 3.86424,0.001 7.72849,0.002 11.59273,-0.003 3.30294,-7.8e-4 6.60587,-4.2e-4 9.9088,-10e-4 3.04801,-0.002 6.09601,-7.2e-4 9.14401,-0.001 3.00606,9.6e-4 6.01213,-10e-6 9.01818,-0.004 2.54692,-0.003 5.09382,-0.0118 7.6407,-0.0275 1.96747,-0.007 3.93941,-0.0363 5.9022,0.12289 1.63312,0.199 3.28801,0.47612 4.25412,1.95912 0.89435,1.78432 0.85473,3.36036 0.77053,5.33092 -0.0135,1.91805 -0.0181,3.84309 -0.25779,5.74927 -0.26008,1.62192 -0.78384,3.12676 -1.35562,4.65899 -1.05025,2.29938 -3.42232,3.27134 -5.56879,4.46597 -1.43525,0.77277 -2.93838,1.41246 -4.59146,1.47503 -2.48687,-0.001 -4.97375,-0.004 -7.46062,-0.006 -3.5764,-9.7e-4 -7.1528,-0.01 -10.7292,-0.006 -3.67127,6.4e-4 -7.34254,0.003 -11.0138,0.005 -2.93962,0.002 -5.87922,0.003 -8.81884,1.6e-4 -3.05145,0.002 -6.10291,0.003 -9.15436,0.009 -2.2542,0.004 -4.50854,0.0185 -6.76264,-0.0108 -2.21631,-0.0421 -4.43477,-0.12271 -6.63491,-0.41336 -2.54648,-0.34435 -5.07753,-0.79173 -7.63417,-1.05518 -1.69547,-0.35126 -3.30028,-0.98488 -5.00738,-1.28691 -1.68804,-0.40786 -3.42199,-0.45006 -5.09819,-0.91574 -1.51831,-0.49061 -3.0232,-0.99696 -4.55244,-1.45148 -1.47475,-0.48578 -2.99761,-0.80024 -4.31222,-1.68774 -1.47049,-0.5671 -3.08207,-0.96242 -3.56527,-2.65806 -0.2906,-2.11391 -0.0432,-4.26635 -0.12243,-6.39468 0.002,-2.53508 0.009,-5.07023 -0.01,-7.60527 0,0 2.64562,-1.34801 2.64562,-1.34801 z"
       inkscape:connector-curvature="0" />
    <path
       style="fill:#000000;stroke:#000000;stroke-opacity:1"
       id="path4228"
       d="m 268.32281,562.4059 c 0.002,2.53836 -0.44738,5.05508 -1.00568,7.52315 -0.69528,2.98622 -1.3031,5.97675 -1.66114,9.02343 -0.27668,2.76233 -0.32766,5.53969 -0.35082,8.31356 -0.008,2.29104 -0.002,4.58209 0.003,6.87312 0.003,2.36332 0.004,4.72664 0.006,7.08995 0.002,2.09516 0.002,4.19032 0.003,6.28548 2.1e-4,2.00033 1.7e-4,4.00066 1.5e-4,6.00099 -0.19383,1.74387 0.51785,3.21226 1.15479,4.76495 0.63644,1.33203 1.86631,2.05268 3.02534,2.85663 0.80087,0.45282 1.75104,1.06104 2.72446,0.9306 0.19573,-0.0262 0.72877,-0.2984 0.55787,-0.19945 -0.68262,0.39523 -1.39956,0.72797 -2.09933,1.09195 0.95228,-1.18573 1.45625,-2.62519 1.99721,-4.02625 0.59507,-1.86211 0.99875,-3.78498 1.65151,-5.6286 0.61901,-1.56595 0.96142,-3.21033 1.77364,-4.69513 0.89486,-1.52317 1.56465,-3.16092 2.30682,-4.76132 0.74049,-1.90254 1.50932,-3.76625 1.92181,-5.77185 0.33437,-2.2116 0.34654,-4.45487 0.36587,-6.6866 0.007,-2.05979 -0.003,-4.11959 -0.008,-6.17937 -0.005,-2.00019 -0.006,-4.00039 -0.006,-6.00059 -4.1e-4,-1.99908 -3.1e-4,-3.99816 -2.7e-4,-5.99724 -0.0672,-1.95161 0.14089,-3.92187 -0.11246,-5.86135 -0.50615,-1.68709 -2.14279,-1.88669 -3.66943,-2.06401 -1.95788,-0.14073 -3.92328,-0.10088 -5.88463,-0.0874 -0.33568,0.002 -0.67136,0.005 -1.00704,0.007 0,0 2.39091,-1.73967 2.39091,-1.73967 l 0,0 c 0.33571,-0.002 0.67142,-0.005 1.00713,-0.007 1.97035,-0.0125 3.94626,-0.0536 5.91143,0.11654 1.66753,0.22875 3.32422,0.58357 3.87232,2.39428 0.27475,1.95025 0.0588,3.93438 0.12662,5.89904 -4e-5,1.99905 -1.3e-4,3.99809 2.5e-4,5.99714 5.7e-4,2.00006 10e-4,4.00012 0.006,6.00018 0.005,2.06128 0.0142,4.12257 0.007,6.18385 -0.0189,2.24727 -0.0355,4.50326 -0.33667,6.73426 -0.39312,2.03256 -1.16008,3.90805 -1.89286,5.8352 -0.73796,1.60733 -1.41105,3.24409 -2.28589,4.78223 -0.8869,1.44099 -1.17626,3.09553 -1.80214,4.65196 -0.70109,1.82569 -1.06849,3.76515 -1.64911,5.63072 -0.53875,1.43997 -1.08105,2.87194 -1.92172,4.16678 -3.0582,1.84761 -3.54213,2.71062 -6.4468,0.88161 -1.21417,-0.82599 -2.4496,-1.63083 -3.11201,-3.00543 -0.64792,-1.58532 -1.39217,-3.0912 -1.20026,-4.87118 1e-5,-2.0004 1e-5,-4.00081 3e-4,-6.00121 3.7e-4,-2.09598 10e-4,-4.19195 0.002,-6.28793 9e-4,-2.36326 1.9e-4,-4.72651 -0.005,-7.08977 -0.003,-2.29216 -0.0157,-4.58434 -0.004,-6.87649 0.0276,-2.78575 0.0871,-5.57408 0.35175,-8.3492 0.35291,-3.0537 0.94412,-6.05334 1.63643,-9.04686 0.56335,-2.44229 1.03813,-4.93736 1.01315,-7.45275 0,0 2.64562,-1.34801 2.64562,-1.34801 z"
       inkscape:connector-curvature="0" />
    <text
       xml:space="preserve"
       style="font-style:normal;font-weight:normal;font-size:16.25px;line-height:125%;font-family:sans-serif;letter-spacing:0px;word-spacing:0px;fill:#000000;fill-opacity:1;stroke:none;stroke-width:1px;stroke-linecap:butt;stroke-linejoin:miter;stroke-opacity:1"
       x="430"
       y="512.36218"
       id="text4230"
       sodipodi:linespacing="125%"><tspan
         sodipodi:role="line"
         id="tspan4232"
         x="430"
         y="512.36218">每一行肯定有元素，怎么确定行的范围</tspan><tspan
         sodipodi:role="line"
         x="430"
         y="532.67468"
         id="tspan4234">以最左边的元素作为出发点</tspan></text>
    <path
       style="fill:#000000;stroke:#000000;stroke-opacity:1"
       id="path4236"
       d="m 274.32281,671.4059 c -0.0183,2.53837 -0.0121,5.07685 -0.01,7.61527 0.002,2.16389 0.003,4.32779 0.004,6.49169 -0.14746,1.85332 0.32647,3.0468 2.09791,3.66476 2.19298,0.46112 4.46179,0.36168 6.69028,0.3661 3.68179,-0.006 7.36355,-0.0216 11.04532,-0.0334 2.9401,-0.01 5.88022,-0.0111 8.82034,-0.0126 3.13095,0.001 6.26189,0.002 9.39284,0.004 3.92246,0.005 7.84492,0.006 11.76738,10e-4 2.43418,-0.0613 4.95637,0.29731 7.26749,-0.62603 -0.64686,0.34111 -1.2461,0.79426 -1.9406,1.02332 -0.22304,0.0736 0.33066,-0.33788 0.45891,-0.53463 0.60758,-0.93208 0.65772,-2.13059 0.7496,-3.19983 0.098,-1.97386 0.0588,-3.95145 0.0437,-5.92684 -0.0257,-1.72177 -0.33064,-3.49318 -0.85247,-5.13688 -0.53177,-1.45314 -0.62645,-2.99048 -1.86188,-4.03354 -1.52449,-0.82215 -3.31054,-0.80808 -4.99915,-0.8577 -3.00282,-0.033 -6.00601,-0.0113 -9.00895,-0.007 -4.21599,0.007 -8.43198,0.0109 -12.64797,0.0131 -3.05749,0.003 -6.11497,0.009 -9.17246,0.0121 -2.0748,0.002 -4.1496,0.002 -6.22441,0.002 -1.9882,5e-5 -3.97641,-10e-6 -5.96462,-4e-5 -0.33257,-10e-6 -0.66515,-10e-6 -0.99772,-2e-5 0,0 2.39246,-1.73822 2.39246,-1.73822 l 0,0 c 0.33258,0 0.66517,-1e-5 0.99775,-1e-5 1.98823,-3e-5 3.97646,-9e-5 5.96469,0 2.07259,1.9e-4 4.14518,5.1e-4 6.21776,0.003 3.04715,0.003 6.09429,0.009 9.14144,0.0103 4.2171,-10e-4 8.43421,-0.002 12.6513,-0.0164 3.01651,-0.0123 6.03353,-0.0451 9.04988,-0.009 1.74553,0.063 3.58808,0.0777 5.12173,1.0205 1.24193,1.12454 1.41879,2.64527 1.93967,4.17407 0.5394,1.66689 0.84929,3.47237 0.88652,5.22022 0.0154,1.98253 0.0532,3.96669 -0.0289,5.94821 -0.26101,3.56623 -0.65715,3.9919 -4.25196,5.85886 -2.35892,0.77531 -4.8499,0.4819 -7.29579,0.51889 -3.92359,-0.005 -7.84716,-0.003 -11.77075,0.001 -3.13494,0.002 -6.26989,0.002 -9.40484,0.004 -2.93587,-3.5e-4 -5.87175,7.3e-4 -8.80762,0.004 -3.68331,0.006 -7.36658,0.021 -11.04987,0.0355 -2.25902,7.2e-4 -4.57157,0.12291 -6.78056,-0.43226 -1.8162,-0.73183 -2.4311,-2.02252 -2.27057,-3.9789 6e-4,-2.16528 0.002,-4.33055 0.004,-6.49583 0.002,-2.53508 0.009,-5.07023 -0.01,-7.60527 0,0 2.64562,-1.34801 2.64562,-1.34801 z"
       inkscape:connector-curvature="0" />
    <path
       style="fill:#000000;stroke:#000000;stroke-opacity:1"
       id="path4238"
       d="m 272.32281,703.4059 c -0.0183,2.53837 -0.0121,5.07685 -0.01,7.61527 0.0907,1.87168 -0.45658,3.9906 0.81843,5.54399 1.49396,1.01642 3.40735,0.9252 5.14232,0.96788 3.2157,0.0254 6.43163,-7.9e-4 9.64738,-0.011 3.38901,-0.0127 6.77804,-0.0192 10.16706,-0.0209 3.03445,-0.002 6.06889,-0.003 9.10333,-0.002 2.95692,-6.5e-4 5.91384,7.3e-4 8.87076,-10e-4 2.31295,-0.002 4.6259,-0.004 6.93885,-0.004 2.00967,-5.6e-4 4.01934,-5.6e-4 6.02901,-5.7e-4 0.95039,-0.0543 1.92866,0.133 2.86158,-0.13715 0.24386,-0.0706 0.9168,-0.4357 0.69344,-0.31501 -2.2852,1.2347 -2.41567,1.5873 -1.58335,0.45755 0.74205,-1.63638 0.69309,-3.48464 0.71996,-5.24616 -0.0595,-1.95973 0.12612,-3.94089 -0.13874,-5.88722 -0.1815,-1.80313 -1.23504,-2.51366 -2.87575,-2.91054 -1.87883,-0.30074 -3.79109,-0.26204 -5.68794,-0.259 -2.12827,0.076 -4.22123,0.0376 -6.32697,-0.27406 -2.81598,-0.46081 -5.6725,-0.55417 -8.51928,-0.63657 -3.06781,-0.0688 -6.13661,-0.0677 -9.20502,-0.066 -2.32432,0.003 -4.64864,0.008 -6.97296,0.0104 -2.00865,0.002 -4.01731,0.002 -6.02596,0.002 -1.99548,4e-5 -3.99096,-10e-6 -5.98644,-4e-5 -1.99958,-2e-5 -3.99916,-3e-5 -5.99874,-3e-5 -2.39088,-10e-4 -4.78175,-0.004 -7.17263,-0.004 -1.56338,7.4e-4 -0.82961,-0.001 -2.20129,0.004 0,0 2.39405,-1.73937 2.39405,-1.73937 l 0,0 c 1.36102,0.005 0.63117,0.004 2.18955,0.004 2.39424,5.7e-4 4.78847,-0.003 7.1827,-0.004 1.99959,10e-6 3.99918,10e-6 5.99877,2e-5 1.99551,0 3.99102,2e-5 5.98653,-6e-5 2.00809,-1e-4 4.01618,-2.7e-4 6.02427,-9.7e-4 2.31997,-8e-4 4.63994,-0.002 6.9599,-5.9e-4 3.06791,0.004 6.13629,0.002 9.20347,0.0777 2.85918,0.0861 5.72704,0.18951 8.55522,0.65185 2.09857,0.29265 4.19003,0.2905 6.30705,0.23617 1.91435,2.4e-4 3.84867,-0.0377 5.73802,0.31642 1.71128,0.4779 2.84771,1.33014 3.05321,3.21002 0.28577,1.95858 0.0912,3.95514 0.15612,5.92942 -0.0211,1.8084 0.0172,3.6794 -0.63764,5.39374 -1.54423,2.61542 -4.41688,3.02428 -7.08363,2.92451 -2.00915,-10e-6 -4.01829,-10e-6 -6.02744,-5.7e-4 -2.30881,-7.9e-4 -4.61762,-0.002 -6.92643,-0.005 -2.95554,-0.002 -5.91107,-8.4e-4 -8.8666,-0.002 -3.03352,8.8e-4 -6.06704,-5.1e-4 -9.10056,-3e-5 -3.38566,0.002 -6.77132,0.003 -10.15695,0.0147 -3.22607,0.0136 -6.45234,0.048 -9.67838,0.0223 -1.81677,-0.0536 -3.79668,0.004 -5.2983,-1.17312 -1.29439,-1.65583 -0.8565,-3.74751 -0.89598,-5.72911 0.002,-2.53508 0.009,-5.07023 -0.01,-7.60527 0,0 2.64562,-1.34801 2.64562,-1.34801 z"
       inkscape:connector-curvature="0" />
    <path
       style="fill:#000000;stroke:#000000;stroke-opacity:1"
       id="path4240"
       d="m 442.32281,651.4059 c -0.0193,2.9314 -0.0166,5.8629 -0.0181,8.79435 6.3e-4,1.93661 0.004,3.87322 0.007,5.80983 0,0 -2.62358,1.33678 -2.62358,1.33678 l 0,0 c 0.003,-1.93903 0.006,-3.87807 0.007,-5.8171 -0.002,-2.92528 10e-4,-5.85062 -0.0181,-8.77585 0,0 2.64562,-1.34801 2.64562,-1.34801 z"
       inkscape:connector-curvature="0" />
    <path
       style="fill:#000000;stroke:#000000;stroke-opacity:1"
       id="path4242"
       d="m 451.91879,649.48957 c 5.10693,0.0246 10.21393,0.0281 15.32089,0.0443 14.93584,0.0462 29.87176,0.0506 44.80765,0.059 17.63519,0.0116 35.27038,0.011 52.90555,-0.0197 5.64609,0.35844 14.03709,-0.51292 19.1612,2.53843 1.75243,2.29 1.56,5.37045 1.31043,8.10447 -0.70903,3.87392 -4.30555,5.41611 -7.73773,6.66354 -3.84548,1.53122 -7.99172,1.83918 -12.07862,2.10023 -6.67867,0.27558 -13.36581,0.23499 -20.04881,0.23986 -8.08105,3.1e-4 -16.16209,-0.0192 -24.24313,-0.0304 -9.07767,-0.006 -18.15535,-0.004 -27.23303,0.002 -7.0886,0.007 -14.17721,0.008 -21.26581,0.011 -6.38823,-3.6e-4 -12.77647,-7.1e-4 -19.1647,0.004 -3.61547,0.002 -7.23093,0.0104 -10.84639,0.0176 0,0 2.37206,-1.72341 2.37206,-1.72341 l 0,0 c 3.59931,0.007 7.19861,0.016 10.79792,0.0176 6.38496,0.004 12.76992,0.004 19.15488,0.004 7.07847,0.003 14.15695,0.004 21.23542,0.0111 9.07083,0.007 18.14167,0.0104 27.21251,0.0127 8.09315,-0.003 16.1863,-0.005 24.27945,0.004 6.69288,-0.006 13.39069,0.0248 20.07803,-0.28452 4.09048,-0.28199 8.22711,-0.6343 12.06547,-2.1965 0.43726,-0.1668 1.37003,-0.96476 1.3118,-0.50039 -0.0684,0.54519 -0.92847,0.59042 -1.36495,0.92417 -0.3345,0.25578 0.73778,-0.4167 1.05835,-0.68973 0.99953,-0.8513 1.54685,-2.01222 1.78817,-3.27832 0.26922,-2.60034 0.49101,-5.61409 -1.15303,-7.81057 -5.06485,-2.97136 -13.2982,-2.18171 -18.86152,-2.56188 -17.61712,-0.0308 -35.23426,-0.0312 -52.8514,-0.0197 -14.99003,0.008 -29.98009,0.013 -44.97007,0.059 -5.14758,0.0162 -10.29521,0.0198 -15.44276,0.0443 0,0 2.40217,-1.74527 2.40217,-1.74527 z"
       inkscape:connector-curvature="0" />
    <path
       style="fill:#000000;stroke:#000000;stroke-opacity:1"
       id="path4244"
       d="m 492.74507,680.0645 c 1.59249,1.91276 3.1676,3.839 4.68427,5.81189 1.06599,1.4078 2.31509,2.56801 3.76252,3.5682 1.4936,0.68927 3.12548,1.12352 4.73052,1.49703 3.01171,1.16073 6.08614,1.76512 9.28968,2.10633 7.00032,0.48425 14.02448,0.46389 21.03805,0.49302 9.95993,0.0226 19.91989,0.0202 29.87983,0.0196 10.96886,0.003 21.93772,-0.01 32.90657,-0.019 6.01131,-0.005 12.02259,-0.0226 18.03388,-0.0386 1.27782,-0.0989 2.5996,0.17094 3.86231,-0.1424 0.27086,-0.0672 1.01715,-0.45484 0.77584,-0.31465 -2.2934,1.33238 -2.35228,1.56633 -1.68375,0.58295 0.28433,-1.27907 -0.71397,-2.56422 -1.42214,-3.5615 -0.93275,-1.67968 -2.28836,-2.7969 -3.98796,-3.63402 -2.87548,-1.38427 -6.07114,-1.72765 -9.20917,-2.00335 -2.93898,-0.21687 -5.88718,-0.22111 -8.83233,-0.22583 -3.16395,0.007 -6.3279,0.0101 -9.49186,0.0119 -4.08489,0.003 -8.16977,0.002 -12.25466,-10e-4 -5.59129,-0.008 -11.18257,-0.01 -16.77386,-0.006 -4.55046,5.6e-4 -9.10091,0.008 -13.65136,0.0111 -3.57309,9.8e-4 -7.14617,0.002 -10.71926,10e-4 -3.31227,-10e-4 -6.62453,10e-4 -9.9368,0.005 -2.19077,0.005 -4.36125,0.12747 -6.51709,-0.301 -1.7493,-0.40874 -3.53855,-0.54901 -5.3276,-0.63464 -1.96924,-0.0706 -3.94015,-0.066 -5.91036,-0.0664 -2.0016,0.002 -4.00321,0.004 -6.00482,0.006 -2.00057,10e-4 -4.00114,10e-4 -6.0017,10e-4 -0.33335,10e-6 -0.66669,2e-5 -1.00004,2e-5 0,0 2.39237,-1.73817 2.39237,-1.73817 l 0,0 c 0.33335,-10e-6 0.66669,-2e-5 1.00003,-2e-5 2.00053,-1.2e-4 4.00105,-2.6e-4 6.00157,-0.002 2.00169,-10e-4 4.00339,-0.004 6.00509,-0.006 1.97371,10e-4 3.94829,-0.002 5.92076,0.0771 1.79908,0.0955 3.59483,0.25753 5.3541,0.66652 2.13856,0.39755 4.29903,0.24925 6.4661,0.26847 3.30779,0.004 6.61558,0.006 9.92337,0.005 3.57194,-0.001 7.14387,2.6e-4 10.7158,10e-4 4.54021,0.003 9.08043,0.0106 13.62064,0.0112 5.59685,0.004 11.1937,0.002 16.79055,-0.006 4.09005,-0.004 8.18011,-0.005 12.27016,-0.0107 3.16887,-0.006 6.33773,-0.0195 9.50661,-0.0216 2.94714,0.005 5.89734,0.0198 8.83713,0.25434 3.17142,0.29397 6.3922,0.67164 9.29455,2.0789 1.72213,0.88445 3.11619,2.03587 4.07362,3.75108 0.78188,1.10929 1.76334,2.43821 1.58627,3.85403 -1.43439,3.04253 -5.317,2.83501 -8.03701,2.80561 -5.9763,-0.0161 -11.95259,-0.0333 -17.92891,-0.0377 -10.95847,-0.007 -21.91694,-0.0165 -32.87542,-0.004 -9.98068,0.009 -19.96136,0.0334 -29.94204,0.0241 -7.03822,-0.027 -14.08677,-0.003 -21.11239,-0.47583 -3.2238,-0.34638 -6.3126,-0.98376 -9.3579,-2.10376 -1.63022,-0.39434 -3.30875,-0.81334 -4.79986,-1.58559 -1.45519,-1.03471 -2.72345,-2.21649 -3.79482,-3.65437 -1.50413,-1.96758 -3.05959,-3.89589 -4.68228,-5.76767 0,0 2.5332,-1.55235 2.5332,-1.55235 z"
       inkscape:connector-curvature="0" />
    <path
       style="fill:#000000;stroke:#000000;stroke-opacity:1"
       id="path4246"
       d="m 494.32052,692.52669 c -0.034,4.6797 -0.0375,9.35958 -0.0415,14.03939 0.003,4.82647 -0.003,9.65308 0.0285,14.47948 0.004,0.31673 0.007,0.63346 0.0107,0.95019 0,0 -2.63652,1.34337 -2.63652,1.34337 l 0,0 c 0.004,-0.32036 0.007,-0.64073 0.0107,-0.96109 0.0315,-4.8361 0.026,-9.6724 0.0285,-14.50857 -0.004,-4.66571 -0.007,-9.33149 -0.0415,-13.99709 0,0 2.64104,-1.34568 2.64104,-1.34568 z"
       inkscape:connector-curvature="0" />
    <path
       style="fill:#000000;stroke:#000000;stroke-opacity:1"
       id="path4248"
       d="m 495.21395,702.42793 c -0.1355,1.83939 -0.90011,3.53898 -1.36186,5.29414 -0.008,-0.0198 -0.0152,-0.0396 -0.0228,-0.0594 -0.80409,0.29685 -1.60818,0.5937 -2.41227,0.89055 0,0 2.71438,-1.22335 2.71438,-1.22335 l 0,0 c -2.94353,1.85825 -2.39497,2.85593 -2.96855,1.68948 0.32796,-1.76153 1.3883,-3.42894 1.38402,-5.28747 0,0 2.66713,-1.30395 2.66713,-1.30395 z"
       inkscape:connector-curvature="0" />
    <path
       style="fill:#000000;stroke:#000000;stroke-opacity:1"
       id="path4250"
       d="m 494.78743,691.18653 c -2.09079,1.61722 -3.86672,3.59118 -5.89775,5.2928 -3.3534,2.57001 -7.07614,4.63515 -11.02234,6.13506 -0.22162,0.098 -0.87205,0.41949 -0.66486,0.29385 3.16054,-1.91655 1.39252,-0.99759 3.81285,-1.51723 0,0 -2.37551,1.78665 -2.37551,1.78665 l 0,0 c -3.93329,0.47985 -0.71714,-1.7843 1.55008,-2.38315 0.35632,-0.13544 0.71446,-0.2662 1.06897,-0.40632 0.46885,-0.18531 0.92266,-0.72928 1.40095,-0.56991 0.38801,0.12929 -1.39256,0.83721 -1.00683,0.70124 1.67459,-0.59029 3.02978,-2.03831 4.51833,-2.94346 2.04259,-1.68259 3.8307,-3.61908 5.84507,-5.32048 0,0 2.77104,-1.06905 2.77104,-1.06905 z"
       inkscape:connector-curvature="0" />
    <path
       style="fill:#000000;stroke:#000000;stroke-opacity:1"
       id="path4252"
       d="m 501.6437,694.2156 c 0.81644,1.42035 1.34806,2.96327 1.82244,4.52267 0,0 -2.58422,1.41376 -2.58422,1.41376 l 0,0 c -0.46174,-1.53741 -0.97795,-3.06123 -1.80791,-4.44705 0,0 2.56969,-1.48938 2.56969,-1.48938 z"
       inkscape:connector-curvature="0" />
    <path
       style="fill:#000000;stroke:#000000;stroke-opacity:1"
       id="path4254"
       d="m 438.32281,683.4059 c -0.11944,3.04041 0.80295,5.9785 1.57531,8.88325 0.78394,2.48339 1.64286,4.92275 3.55851,6.75074 1.48574,1.02072 3.36469,1.70039 5.11221,1.02371 1.99863,-0.98054 -1.20082,0.59194 -1.31509,0.61994 -0.26737,0.0655 0.39095,-0.38853 0.56969,-0.59789 0.53046,-0.6213 1.02276,-1.29734 1.50884,-1.95396 0.95246,-1.21572 1.61397,-1.34985 3.63881,-1.64693 0.27402,-0.0402 0.77128,1.52318 0.82308,1.67126 0.009,0.17226 0.69767,3.74396 0.97573,2.76453 -0.79736,0.40685 -1.53645,0.95752 -2.3921,1.22053 -0.16989,0.0522 0.0697,-0.34879 0.11512,-0.52062 0.26571,-1.00559 0.65649,-1.90664 1.15644,-2.81652 1.36501,-2.07398 3.22358,-3.72586 5.18222,-5.22131 2.29678,-1.34221 5.0186,-3.56461 7.84048,-2.61546 1.92514,0.73281 3.59398,1.98796 5.37729,3.00152 1.69135,0.86935 3.50465,1.47116 5.36381,0.84761 1.93275,-0.88089 -0.81645,0.60078 -1.27888,0.79682 -0.23967,0.1016 0.40139,-0.33155 0.60245,-0.4969 0.71306,-0.5864 1.42769,-1.16955 2.13343,-1.76483 1.72363,-1.52946 3.67185,-2.74567 5.17563,-4.50825 0.88778,-0.90275 1.52541,-1.93697 2.01623,-3.09246 0,0 2.68909,-1.24193 2.68909,-1.24193 l 0,0 c -0.46325,1.19284 -1.06489,2.26911 -1.98797,3.17887 -1.46232,1.81862 -3.4087,3.03173 -5.15261,4.55476 -1.99941,1.70847 -3.99801,3.5363 -6.54922,4.38458 -1.9357,0.46035 -3.7641,-0.12856 -5.48684,-1.04964 -1.76167,-1.01388 -3.42683,-2.25407 -5.35419,-2.93556 -0.8803,-0.2282 -1.54223,-0.17651 -2.43007,0.0673 -0.31242,0.0858 -1.14533,0.53923 -0.92351,0.30308 0.4398,-0.46819 1.10208,-0.66375 1.61967,-1.04418 0.2825,-0.20764 -0.60797,0.34934 -0.91196,0.52401 -1.97099,1.45035 -3.81897,3.08243 -5.22154,5.10525 -0.37739,0.64997 -0.51314,0.82118 -0.77718,1.50075 -0.12558,0.32321 -0.37195,1.68369 -0.48953,1.78941 -0.80923,0.7276 -1.77258,1.26292 -2.65887,1.89438 -1.14625,-0.3157 -0.89722,-2.30706 -1.23359,-3.18941 -0.18039,-0.52493 -0.20236,-0.68169 -0.47897,-1.14816 -0.0896,-0.15104 -0.42454,-0.30636 -0.30171,-0.43185 3.85516,-3.93845 2.60805,-1.69658 1.64048,-1.05853 -1.52775,2.15166 -3.16565,4.02273 -5.8304,4.92855 -1.86781,0.48955 -3.76103,-0.17285 -5.28254,-1.29525 -1.92421,-1.89494 -2.83199,-4.35569 -3.61514,-6.90158 -0.77906,-2.92239 -1.71125,-5.87474 -1.64823,-8.93158 0,0 2.64562,-1.34801 2.64562,-1.34801 z"
       inkscape:connector-curvature="0" />
    <path
       style="fill:#000000;stroke:#000000;stroke-opacity:1"
       id="path4256"
       d="m 314.32281,757.4059 c -0.12358,2.94692 0.049,5.86649 0.54231,8.77241 0.64477,2.88504 1.08459,5.79579 1.29382,8.74304 0.14727,2.48752 0.16277,4.98001 0.16958,7.47106 -0.0776,1.82207 0.0676,3.6442 0.69375,5.36562 0.51437,1.37631 0.99786,2.77016 2.12105,3.76441 1.21846,0.56701 2.54006,0.21363 3.75184,-0.17651 0.82447,-0.67885 3.34496,-1.44638 -0.74565,0.33234 -0.21985,0.0956 0.38891,-0.28111 0.57301,-0.43468 0.36478,-0.30429 0.70349,-0.63861 1.06002,-0.95253 0.97594,-1.03982 1.76601,-2.24809 2.62125,-3.39105 0.91848,-1.59939 2.49632,-2.53305 3.77004,-3.79096 1.17238,-1.39902 1.34509,-3.18597 1.47496,-4.93502 0.093,-1.98051 0.0652,-3.96423 0.0552,-5.9462 -0.0118,-2.00427 -0.0167,-4.00856 -0.0195,-6.01285 0.16673,-1.94979 -0.53034,-3.70984 -1.15856,-5.5037 -0.38809,-1.5162 -1.0699,-2.93309 -2.06205,-4.14245 -1.24947,-1.1075 -2.94582,-1.19314 -4.53406,-1.30358 -1.97393,-0.087 -3.95069,-0.0622 -5.92593,-0.0534 -1.33816,0.007 -2.67633,0.0111 -4.0145,0.0145 0,0 2.39183,-1.73873 2.39183,-1.73873 l 0,0 c 1.33806,-0.004 2.67611,-0.008 4.01416,-0.0149 1.98069,-0.008 3.96344,-0.0334 5.94222,0.0707 1.66607,0.1352 3.40451,0.28783 4.67386,1.50031 1.0004,1.24499 1.7174,2.68201 2.10719,4.23483 0.63419,1.82218 1.36052,3.6142 1.20046,5.59355 0.003,2.00398 0.007,4.00795 0.0189,6.01189 0.0104,1.98824 0.0377,3.97785 -0.0433,5.96501 -0.11737,1.79318 -0.26821,3.63397 -1.38482,5.12243 -1.2219,1.30422 -2.87194,2.1436 -3.7805,3.75054 -0.84024,1.16869 -1.69626,2.33452 -2.59519,3.45315 -1.83834,1.54961 -3.75175,3.01661 -5.98734,3.98704 -1.28954,0.38323 -2.70695,0.65356 -3.92832,-0.0762 -1.13051,-1.05552 -1.67126,-2.4572 -2.19065,-3.88913 -0.64577,-1.75001 -0.81583,-3.60653 -0.73021,-5.46341 -0.002,-2.48705 -0.007,-4.97568 -0.14771,-7.45961 -0.20481,-2.93899 -0.6265,-5.84504 -1.27015,-8.72215 -0.51017,-2.91308 -0.6926,-5.84071 -0.60263,-8.79778 0,0 2.64562,-1.34801 2.64562,-1.34801 z"
       inkscape:connector-curvature="0" />
    <path
       style="fill:#000000;stroke:#000000;stroke-opacity:1"
       id="path4258"
       d="m 344.32281,774.4059 c 0.11372,2.89851 -0.1447,5.76585 -0.46106,8.64202 -0.1824,2.64564 -0.54006,5.25822 -0.95869,7.87462 -0.3601,2.17593 -0.48956,4.3774 -0.5576,6.5787 0.024,1.95696 -0.18011,3.93485 0.077,5.8797 0.164,1.60899 1.05389,2.64195 2.18853,3.67018 1.417,1.06403 3.08442,1.61562 4.79683,1.98154 2.15325,0.38553 4.34485,0.43467 6.52607,0.46805 0.95341,0.0926 1.7832,-0.033 2.63792,-0.4435 0.22595,-0.10852 0.88906,-0.46354 0.66766,-0.34601 -2.22582,1.1815 -2.50123,1.54051 -1.39713,0.49434 1.24399,-1.39588 1.53361,-3.20395 1.73103,-4.99597 0.1558,-1.98943 0.13527,-3.98717 0.13092,-5.98111 -0.008,-2.00466 -0.0151,-4.00932 -0.0187,-6.014 0.27983,-2.56663 -0.78282,-4.65907 -2.01896,-6.82627 -1.57251,-2.29437 -2.30527,-5.03934 -3.83368,-7.34262 -1.25346,-1.49049 -3.06734,-1.69644 -4.89192,-1.82806 -1.64532,-0.0705 -3.2928,-0.0406 -4.93894,-0.0251 0,0 2.39072,-1.74031 2.39072,-1.74031 l 0,0 c 1.65189,-0.0147 3.3057,-0.0445 4.9561,0.0451 1.9095,0.16665 3.7581,0.47367 5.03335,2.05685 1.51155,2.32238 2.25364,5.0645 3.82683,7.36763 1.26042,2.1975 2.39106,4.33921 2.11107,6.94984 0.003,2.00464 0.01,4.00927 0.0184,6.0139 0.005,2.00307 0.026,4.00933 -0.11545,6.00875 -0.1831,1.83369 -0.44884,3.69364 -1.64008,5.1778 -1.87072,1.93243 -4.35498,3.28243 -7.04281,3.16158 -2.19327,-0.0412 -4.39729,-0.10409 -6.55833,-0.51751 -1.75014,-0.3969 -3.46277,-0.98211 -4.89527,-2.10072 -1.18284,-1.0698 -2.09286,-2.19644 -2.28476,-3.85372 -0.27921,-1.95845 -0.0671,-3.95339 -0.0943,-5.92635 0.0651,-2.21389 0.18931,-4.42848 0.54962,-6.61716 0.41969,-2.61438 0.7964,-5.22219 0.97522,-7.86683 0.3188,-2.8611 0.60672,-5.71287 0.44465,-8.59734 0,0 2.64562,-1.34801 2.64562,-1.34801 z"
       inkscape:connector-curvature="0" />
    <path
       style="fill:#000000;stroke:#000000;stroke-opacity:1"
       id="path4266"
       d="m 258.91879,747.48957 c 2.57294,0.0128 5.14594,0.006 7.71891,0.008 3.21666,0.002 6.43333,0.003 9.64999,0.007 5.41129,0.007 10.82258,0.0129 16.23387,0.018 6.42708,0.003 12.85415,-6.7e-4 19.28122,-0.006 4.57075,-0.003 9.14151,-0.009 13.71226,-0.012 2.80354,-0.003 5.60708,-0.008 8.41063,-0.01 2.90268,0.002 5.80535,0.006 8.70803,0.007 4.09938,0.003 8.19877,0.005 12.29815,0.009 5.31524,0.007 10.63048,0.003 15.94572,0.003 5.0833,0.001 10.1666,-5.3e-4 15.2499,-0.003 3.92022,-0.18386 7.81085,0.27255 11.70813,0.60488 2.95853,0.23574 5.92546,0.32625 8.89217,0.36945 1.07047,-0.0219 2.11498,-0.002 3.17349,0.14982 0,0 -2.41697,1.70833 -2.41697,1.70833 l 0,0 c -1.04813,-0.12441 -2.08819,-0.13939 -3.14436,-0.12922 -2.96484,-0.0536 -5.9293,-0.15966 -8.88568,-0.39931 -3.88473,-0.33806 -7.76432,-0.77258 -11.67228,-0.59984 -5.08021,-0.003 -10.16043,-0.005 -15.24064,-0.003 -5.31814,-2.3e-4 -10.63628,-0.004 -15.95441,0.003 -4.10741,0.004 -8.21482,0.006 -12.32222,0.009 -2.90903,0.001 -5.81804,0.005 -8.72707,0.007 -2.79435,-0.002 -5.5887,-0.007 -8.38306,-0.01 -4.55977,-0.003 -9.11955,-0.008 -13.67933,-0.012 -6.42172,-0.005 -12.84344,-0.009 -19.26516,-0.006 -5.42781,0.005 -10.85562,0.0112 -16.28343,0.018 -3.22306,0.004 -6.44611,0.005 -9.66917,0.007 -2.58029,0.001 -5.1606,-0.005 -7.74086,0.008 0,0 2.40217,-1.74527 2.40217,-1.74527 z"
       inkscape:connector-curvature="0" />
    <path
       style="fill:#000000;stroke:#000000;stroke-opacity:1"
       id="path4268"
       d="m 397.84492,739.91433 c 2.16898,1.3734 4.1661,3.00648 6.38093,4.30474 1.13116,0.95521 2.90235,1.4896 3.68533,2.80769 -0.35032,1.65577 -4.331,2.58258 -5.9311,2.95461 0,0 2.33089,-1.78095 2.33089,-1.78095 l 0,0 c 1.61456,-0.4191 1.16665,-0.24605 2.45983,-0.74972 1.25543,-0.48897 1.13633,-0.62704 -1.62142,1.15992 -0.0556,0.036 0.11735,-0.0615 0.17603,-0.0922 -0.69627,-1.27901 -2.54343,-1.75368 -3.57601,-2.69552 -2.2017,-1.32537 -4.1993,-2.96107 -6.39814,-4.29512 0,0 2.49366,-1.61345 2.49366,-1.61345 z"
       inkscape:connector-curvature="0" />
    <path
       style="fill:#000000;stroke:#000000;stroke-opacity:1"
       id="path4270"
       d="m 256.91879,778.48957 c 2.93927,0.0154 5.87861,0.009 8.81792,0.0112 4.65041,0.004 9.30083,0.0112 13.95124,0.0187 9.41433,0.0106 18.82866,0.0281 28.24299,0.0392 14.7171,0.0129 29.43421,0.0179 44.15131,0.0219 13.97975,-0.42993 27.94529,-1.20014 41.92396,-1.66807 7.68186,-0.23856 15.36655,-0.35624 23.05169,-0.40895 3.81702,-0.0184 7.6341,-0.0103 11.45115,-0.009 2.57092,0.14014 5.08449,-0.0623 7.61649,-0.47304 0,0 -2.36238,1.77432 -2.36238,1.77432 l 0,0 c -2.53343,0.4 -5.05788,0.53997 -7.62503,0.42081 -3.80618,-0.009 -7.61236,-0.0178 -11.41854,-0.0129 -7.64559,0.0192 -15.29117,0.10977 -22.93378,0.33263 -13.95606,0.43753 -27.89856,1.19219 -41.85507,1.607 -14.73721,0.004 -29.47443,0.009 -44.21165,0.0219 -9.45033,0.0112 -18.90065,0.0286 -28.35098,0.0392 -4.66754,0.007 -9.33509,0.0143 -14.00263,0.0187 -2.94962,0.002 -5.89927,-0.004 -8.84886,0.0112 0,0 2.40217,-1.74527 2.40217,-1.74527 z"
       inkscape:connector-curvature="0" />
    <path
       style="fill:#000000;stroke:#000000;stroke-opacity:1"
       id="path4283"
       d="m 425.94555,767.76836 c 2.07779,1.00008 4.26536,1.74255 6.23332,2.95785 1.57967,0.94377 3.16581,1.78363 4.20577,3.34009 1.08649,2.83901 -3.42205,4.17859 -5.09728,5.07542 -2.23535,1.13517 -4.63734,1.84623 -6.95087,2.7771 1.99791,-1.10764 2.31177,-1.32695 1.02823,-0.51202 0,0 -2.76146,1.07497 -2.76146,1.07497 l 0,0 c 1.79665,-1.16596 0.47213,-0.32465 4.05712,-2.38731 2.33266,-0.88383 4.69147,-1.68327 6.93896,-2.78429 -0.48521,0.32653 -0.9792,0.64035 -1.45563,0.97957 -0.50163,0.35717 1.06638,-0.65071 1.4771,-1.10953 0.46427,-0.51866 0.46946,-0.9987 0.20636,-1.61454 -1.01612,-1.51261 -2.61043,-2.29765 -4.13258,-3.23502 -1.96142,-1.18695 -4.12107,-1.95539 -6.20473,-2.89613 0,0 2.45569,-1.66616 2.45569,-1.66616 z"
       inkscape:connector-curvature="0" />
    <path
       style="fill:#000000;fill-opacity:1;stroke:#000000;stroke-opacity:1"
       id="path4319"
       d="m 247.32281,816.4059 c -0.0419,3.27301 0.0552,6.54624 -0.13931,9.81454 -0.23439,1.83455 -0.59313,3.64956 -0.92403,5.46819 0,0 -2.62936,1.28024 -2.62936,1.28024 l 0,0 c 0.33409,-1.81014 0.68995,-3.6172 0.94716,-5.44048 0.20447,-3.25443 0.10056,-6.5148 0.0999,-9.77448 0,0 2.64562,-1.34801 2.64562,-1.34801 z"
       inkscape:connector-curvature="0" />
    <path
       style="fill:#000000;fill-opacity:1;stroke:#000000;stroke-opacity:1"
       id="path4321"
       d="m 244.32281,863.4059 c -0.0193,2.57864 -0.01,5.15737 -0.0121,7.73605 -0.006,2.50046 -0.004,5.00093 -9.4e-4,7.50139 0,0 -2.61956,1.33474 -2.61956,1.33474 l 0,0 c 0.003,-2.50015 0.005,-5.0003 -9.4e-4,-7.50044 -0.002,-2.57458 0.007,-5.1492 -0.0121,-7.72373 0,0 2.64562,-1.34801 2.64562,-1.34801 z"
       inkscape:connector-curvature="0" />
    <path
       style="fill:#000000;fill-opacity:1;stroke:#000000;stroke-opacity:1"
       id="path4323"
       d="m 244.32281,896.4059 c -0.002,0.37139 -0.005,0.74277 -0.007,1.11415 0,0 -2.63062,1.34036 -2.63062,1.34036 l 0,0 c -0.002,-0.36883 -0.005,-0.73766 -0.007,-1.1065 0,0 2.64562,-1.34801 2.64562,-1.34801 z"
       inkscape:connector-curvature="0" />
    <path
       style="fill:#000000;fill-opacity:1;stroke:#000000;stroke-opacity:1"
       id="path4325"
       d="m 241.10382,929.44916 c -1.4403,3.32715 -2.01181,6.86931 -2.3968,10.44601 -0.348,4.15694 -0.40005,8.3305 -0.41865,12.49954 0.17388,2.21219 -0.40684,4.59166 0.40412,6.70642 0.87717,1.03003 2.44723,1.58686 3.77672,1.75494 -0.11922,0.55413 2.39395,-0.8065 1.77312,-0.43083 -3.94719,2.38848 -1.75133,0.97605 -0.97316,0.30679 1.14599,-1.49246 1.66809,-3.39691 2.23577,-5.16846 1.09165,-2.72747 1.62725,-5.59483 1.93958,-8.50118 0.23568,-2.66012 0.25294,-5.33236 0.26175,-8.00081 -4.8e-4,-2.26807 -0.0118,-4.53613 -0.0177,-6.80419 -0.0649,-1.74821 0.39921,-3.67726 -0.81888,-5.10444 -1.09423,-0.81345 -2.31696,-0.8103 -3.59939,-0.61482 0,0 2.37705,-1.7751 2.37705,-1.7751 l 0,0 c 1.36251,-0.15242 2.66328,-0.047 3.76859,0.86181 1.23858,1.52897 0.88792,3.43239 0.90538,5.29039 0.004,2.27004 0.0109,4.54007 0.01,6.81011 -0.008,2.67893 -0.0247,5.36106 -0.25772,8.03201 -0.29647,2.91964 -0.80585,5.81103 -1.90466,8.54955 -0.5565,1.81259 -1.11167,3.70078 -2.14939,5.30008 -1.5773,1.53799 -3.7157,3.03699 -5.98197,2.95695 -1.43088,-0.28196 -3.03904,-0.82406 -3.93577,-2.02013 -0.83506,-2.15743 -0.28516,-4.55888 -0.42458,-6.8206 0.0372,-4.1813 0.10573,-8.36565 0.42873,-12.53642 0.36315,-3.58094 0.89921,-7.135 2.31224,-10.47612 0,0 2.68611,-1.2615 2.68611,-1.2615 z"
       inkscape:connector-curvature="0" />
    <path
       style="fill:#000000;fill-opacity:1;stroke:#000000;stroke-opacity:1"
       id="path4327"
       d="m 246.32281,904.4059 c -0.0169,2.63382 -0.0134,5.26774 -0.013,7.90161 -0.007,1.62651 0.0635,3.2481 -0.10509,4.867 0,0 -2.64876,1.31126 -2.64876,1.31126 l 0,0 c 0.20663,-1.60881 0.12037,-3.22325 0.13415,-4.84346 4.5e-4,-2.62946 0.004,-5.25898 -0.013,-7.8884 0,0 2.64562,-1.34801 2.64562,-1.34801 z"
       inkscape:connector-curvature="0" />
    <path
       style="fill:#000000;fill-opacity:1;stroke:#000000;stroke-opacity:1"
       id="path4329"
       d="m 246.99212,844.46869 c -0.61056,1.19814 -1.04132,2.46956 -1.46912,3.74006 0,0 -2.66015,1.24962 -2.66015,1.24962 l 0,0 c 0.41867,-1.27703 0.84192,-2.5538 1.42733,-3.76724 0,0 2.70194,-1.22244 2.70194,-1.22244 z"
       inkscape:connector-curvature="0" />
    <path
       style="fill:#000000;fill-opacity:1;stroke:#000000;stroke-opacity:1"
       id="path4331"
       d="m 242.32281,884.4059 c -0.0117,1.25324 -0.0111,2.50653 -0.0121,3.75981 0,0 -2.62148,1.3357 -2.62148,1.3357 l 0,0 c -9.9e-4,-1.24917 -3.5e-4,-2.49837 -0.0121,-3.7475 0,0 2.64562,-1.34801 2.64562,-1.34801 z"
       inkscape:connector-curvature="0" />
    <path
       style="fill:#000000;fill-opacity:1;stroke:#000000;stroke-opacity:1"
       id="path4333"
       d="m 228.88944,813.21266 c 2.56676,-0.8341 5.22642,-1.24549 7.90393,-1.50108 3.54867,-0.24361 7.10932,-0.21548 10.66429,-0.21574 5.97184,0.007 11.94367,0.0177 17.91551,0.0222 7.36089,-0.0557 14.72525,0.19618 22.07608,-0.23087 9.75577,-0.8312 19.5363,-1.24253 29.32095,-1.52339 6.20772,-0.17235 12.41761,-0.24227 18.62744,-0.27155 3.53185,-0.008 7.06371,0.004 10.59556,0.006 2.92814,0.002 5.85629,-0.002 8.78443,-6.9e-4 2.774,7e-5 5.548,0.002 8.322,3.8e-4 2.57062,0.002 5.14123,-10e-4 7.71184,-0.003 1.06312,-6.5e-4 2.12625,-9.7e-4 3.18937,-10e-4 0,0 -2.39114,1.73727 -2.39114,1.73727 l 0,0 c -1.06196,-3.1e-4 -2.12391,-6.2e-4 -3.18587,-10e-4 -2.56796,-0.002 -5.13593,-0.004 -7.70389,-0.003 -2.77425,-0.002 -5.5485,5.5e-4 -8.32275,1.1e-4 -2.92374,4.4e-4 -5.84748,-0.006 -8.77121,-0.009 -3.52845,-0.006 -7.0569,-0.008 -10.58535,-0.012 -6.17515,10e-4 -12.35046,0.0505 -18.52389,0.20516 -9.79228,0.27161 -19.57826,0.70782 -29.34046,1.54785 -7.36423,0.41825 -14.74124,0.18309 -22.11511,0.23902 -5.9836,-0.002 -11.9672,-0.005 -17.95079,0.004 -3.55987,0.0151 -7.12627,-0.008 -10.67834,0.26084 -2.67428,0.27129 -5.33104,0.70602 -7.88607,1.57043 0,0 2.34347,-1.82062 2.34347,-1.82062 z"
       inkscape:connector-curvature="0" />
    <path
       style="fill:#000000;fill-opacity:1;stroke:#000000;stroke-opacity:1"
       id="path4335"
       d="m 371.6437,802.2156 c 1.39119,2.12235 2.79233,4.23036 4.2805,6.29076 1.27276,1.95705 2.48589,3.9528 3.68003,5.95871 1.02423,1.45 2.28984,2.96985 2.07419,4.84124 -2.41183,3.17656 -6.89238,2.81465 -10.394,2.90431 -1.99664,0.041 -3.99374,0.0415 -5.99068,0.0452 0,0 2.36101,-1.71585 2.36101,-1.71585 l 0,0 c 1.99326,-0.001 3.98667,-0.002 5.97957,-0.0468 1.8225,-0.0562 3.68446,-0.0475 5.48868,-0.35487 0.3785,-0.0645 1.33808,-0.5859 1.11976,-0.27005 -0.39162,0.56655 -1.13225,0.78616 -1.72219,1.14157 -0.17949,0.10813 0.32468,-0.26497 0.48703,-0.39745 0.39691,-1.77185 -1.04515,-3.28868 -1.95676,-4.66868 -1.1881,-1.99935 -2.4004,-3.98532 -3.66288,-5.93858 -1.49016,-2.06882 -2.88266,-4.19551 -4.31395,-6.30013 0,0 2.56969,-1.48938 2.56969,-1.48938 z"
       inkscape:connector-curvature="0" />
    <path
       style="fill:#000000;fill-opacity:1;stroke:#000000;stroke-opacity:1"
       id="path4337"
       d="m 229.94555,854.76836 c 2.14172,1.11897 4.41031,1.87772 6.77424,2.34469 2.11795,0.35865 4.27028,0.38004 6.41212,0.40034 3.97855,0.0129 7.95714,0.008 11.9357,0.007 6.23232,0.002 12.46464,-2.7e-4 18.69696,0.003 7.01217,-0.002 14.02433,-0.002 21.03649,0.007 9.56108,0.0118 19.12215,0.0168 28.68324,0.009 5.64086,-0.006 2.8964,-0.002 8.2334,-0.0102 0,0 -2.2925,1.66559 -2.2925,1.66559 l 0,0 c -5.31702,-0.008 -2.58195,-0.004 -8.2052,-0.0103 -9.56927,-0.008 -19.13853,-0.003 -28.70779,0.009 -7.01912,0.009 -14.03824,0.009 -21.05736,0.008 -6.24119,0.004 -12.48239,0.004 -18.72358,0.0171 -3.99627,0.008 -7.99254,0.0271 -11.98881,0.0273 -2.15379,-0.0211 -4.31832,-0.0593 -6.44385,-0.44703 -2.37067,-0.49712 -4.63095,-1.29843 -6.80875,-2.36436 0,0 2.45569,-1.66616 2.45569,-1.66616 z"
       inkscape:connector-curvature="0" />
    <path
       style="fill:#000000;fill-opacity:1;stroke:#000000;stroke-opacity:1"
       id="path4339"
       d="m 329.91879,857.48957 c 2.53376,0.0121 5.06758,0.008 7.60136,0.006 2.63202,-0.004 5.26403,7.1e-4 7.89604,0.006 4.75958,0.006 9.51916,0.012 14.27875,0.0118 4.6289,-0.003 9.25781,-0.003 13.8867,-0.009 2.94588,-0.006 5.89177,-0.007 8.83765,-0.009 2.49334,-0.003 4.98669,5.4e-4 7.48003,7.5e-4 1.24763,-2.6e-4 2.49526,-10e-4 3.74289,-0.002 0,0 -2.38575,1.73335 -2.38575,1.73335 l 0,0 c -1.24594,-7.5e-4 -2.49188,-0.002 -3.73782,-0.002 -2.49403,2.1e-4 -4.98807,0.004 -7.4821,7.5e-4 -2.93754,-0.002 -5.87508,-0.003 -8.81262,-0.009 -4.6211,-0.005 -9.2422,-0.006 -13.86331,-0.009 -4.77041,-1.7e-4 -9.54081,0.005 -14.31121,0.0118 -2.63787,0.006 -5.27574,0.01 -7.91361,0.006 -2.53972,-0.002 -5.07947,-0.006 -7.61917,0.006 0,0 2.40217,-1.74527 2.40217,-1.74527 z"
       inkscape:connector-curvature="0" />
    <path
       style="fill:#000000;fill-opacity:1;stroke:#000000;stroke-opacity:1"
       id="path4341"
       d="m 315.32281,820.4059 c -0.0238,2.81157 -0.0151,5.62331 -0.0116,8.43495 0.15622,1.41269 0.19105,3.09134 1.99048,2.55665 0.8868,-0.59895 3.35744,-0.73485 -0.90104,0.55776 -0.21852,0.0663 0.29218,-0.35368 0.407,-0.55107 0.30835,-0.53007 0.36289,-0.87074 0.53026,-1.46075 0.37327,-1.8726 0.3568,-3.79374 0.36887,-5.69503 3.6e-4,-1.29588 0.0444,-0.67239 -0.11509,-1.8716 0,0 2.62012,-1.3807 2.62012,-1.3807 l 0,0 c 0.17746,1.23745 0.12968,0.60067 0.1305,1.91126 -0.009,1.92201 0.007,3.85988 -0.32902,5.75904 -0.67073,2.71641 -2.25891,3.76634 -5.08315,4.53209 -1.80033,0.25422 -2.15212,-1.54653 -2.24135,-3.02146 0.003,-2.8077 0.0122,-5.6155 -0.0116,-8.42313 0,0 2.64562,-1.34801 2.64562,-1.34801 z"
       inkscape:connector-curvature="0" />
    <path
       style="fill:#000000;fill-opacity:1;stroke:#000000;stroke-opacity:1"
       id="path4343"
       d="m 403.43093,815.38425 c 0.39484,2.52796 0.61871,5.07668 0.76578,7.62962 0.10635,2.07567 0.003,4.14142 0.40128,6.18736 0.49807,1.68468 2.00928,1.98266 3.5538,2.1979 1.69977,0.3135 3.49584,-0.13393 5.1694,0.26434 1.04966,0.72227 -0.79008,1.84409 -1.3227,2.32371 -1.15968,0.93651 -2.28092,1.86714 -2.97545,3.20306 -0.78282,1.80477 -1.20625,3.66433 -1.43895,5.61084 -0.25182,2.6977 -0.26656,5.40964 -0.28094,8.11674 -0.28349,1.94276 0.68097,3.48447 1.31609,5.21958 0.19747,0.70294 0.13832,1.33605 -0.0273,2.02876 0,0 -2.68592,1.27562 -2.68592,1.27562 l 0,0 c 0.21483,-0.63385 0.27681,-1.19963 0.11932,-1.86655 -0.63962,-1.76653 -1.63706,-3.34606 -1.34725,-5.32188 0.0183,-2.71637 0.0315,-5.43706 0.26765,-8.14519 0.21069,-1.97477 0.61091,-3.85539 1.37518,-5.69213 0.63933,-1.39871 1.71298,-2.3838 2.92954,-3.30209 0.55457,-0.53344 1.14668,-1.02336 1.74581,-1.49646 0.0462,-0.0365 0.14001,-0.0805 0.11527,-0.13396 -0.0367,-0.0793 -0.15528,-0.0802 -0.23292,-0.12036 -1.69043,-0.2918 -3.45091,0.0473 -5.14944,-0.25892 -1.66363,-0.27125 -3.2072,-0.72028 -3.74445,-2.50707 -0.40789,-2.06114 -0.31863,-4.1373 -0.40648,-6.23069 -0.13728,-2.54061 -0.34259,-5.08035 -0.76997,-7.59091 0,0 2.62262,-1.39132 2.62262,-1.39132 z"
       inkscape:connector-curvature="0" />
    <path
       style="fill:#000000;fill-opacity:1;stroke:#000000;stroke-opacity:1"
       id="path4345"
       d="m 264.32281,900.4059 c -0.0183,2.53837 -0.0121,5.07685 -0.01,7.61527 -0.001,3.02191 -0.006,6.04382 -0.0116,9.06572 -0.003,3.61456 -3.9e-4,7.22913 0.004,10.84368 -6.3e-4,2.78738 0.005,5.57476 0.009,8.36214 0.0686,1.43172 0.55025,2.70278 2.15681,2.29754 -1.04256,0.81197 3.04696,-1.32026 1.87255,-0.72204 -3.53602,1.80117 -1.88778,1.02517 -0.97932,0.0636 0.99087,-1.1782 1.50751,-2.56396 2.09019,-3.95755 0.55638,-1.46711 1.0646,-2.95432 1.55951,-4.44545 0.82993,-2.07286 1.23116,-4.24653 1.46464,-6.45529 0.19602,-2.25836 0.2091,-4.52672 0.21774,-6.79186 0.001,-2.02578 -0.006,-4.05154 -0.01,-6.07732 0.008,-1.91021 0.0903,-3.80028 -0.27822,-5.6807 -0.53806,-1.38628 -0.98577,-2.73294 -2.27085,-3.57088 -1.61247,-0.70602 -3.41124,-0.69797 -5.14065,-0.74041 -1.31915,-0.013 -0.65795,-0.009 -1.98358,-0.0112 0,0 2.39289,-1.73764 2.39289,-1.73764 l 0,0 c 1.32861,0.005 0.6657,-0.001 1.98873,0.0165 1.77398,0.0536 3.62184,0.0658 5.24472,0.87414 1.31152,0.92948 1.82339,2.30672 2.38247,3.77259 0.38049,1.89898 0.31834,3.80314 0.29909,5.73457 0.003,2.02662 0.0101,4.05325 0.008,6.07988 -0.009,2.27486 -0.0238,4.55255 -0.21154,6.82119 -0.22076,2.22186 -0.58813,4.41655 -1.42048,6.50331 -0.47613,1.5049 -1.02728,2.98271 -1.54634,4.47083 -0.62689,1.38987 -1.05981,2.83847 -2.04977,4.04427 -1.53436,1.79424 -3.72086,3.04807 -6.01037,3.59631 -1.73582,0.12986 -2.31992,-1.15142 -2.40525,-2.74527 0.003,-2.79039 0.009,-5.58077 0.009,-8.37116 0.004,-3.61589 0.007,-7.23179 0.004,-10.84768 -0.006,-3.01797 -0.0103,-6.03594 -0.0116,-9.05392 0.002,-2.53508 0.009,-5.07023 -0.01,-7.60527 0,0 2.64562,-1.34801 2.64562,-1.34801 z"
       inkscape:connector-curvature="0" />
    <path
       style="fill:#000000;fill-opacity:1;stroke:#000000;stroke-opacity:1"
       id="path4347"
       d="m 280.32281,881.4059 c -0.0187,2.87535 -0.0152,5.7508 -0.0181,8.6262 0.002,2.96515 0.003,5.9303 0.007,8.89544 -0.25192,2.54184 0.75939,4.58145 2.02886,6.67775 1.14679,1.95112 2.88756,3.34727 4.79055,4.50909 1.77109,1.24062 3.77329,1.85451 5.88374,2.1807 0.92073,0.18 1.716,0.12617 2.5648,-0.25337 0.22384,-0.10009 0.87458,-0.44361 0.65933,-0.32618 -2.25354,1.22934 -2.40341,1.62152 -1.51034,0.41521 1.06809,-2.17798 1.44529,-4.54914 1.69307,-6.93552 0.26839,-3.52587 0.43555,-7.05486 -0.10466,-10.55772 -0.47476,-2.9776 -1.35907,-5.8529 -2.31006,-8.70546 -0.5915,-2.08317 -1.40363,-4.10513 -2.79229,-5.78174 -1.2702,-1.64439 -2.41517,-3.36993 -3.74266,-4.97415 -0.98164,-1.02429 -1.94531,-2.0213 -3.11341,-2.83042 0,0 2.49608,-1.58884 2.49608,-1.58884 l 0,0 c 1.17121,0.84188 2.15572,1.85537 3.14603,2.90199 1.33004,1.60287 2.48314,3.32335 3.74967,4.9714 1.39958,1.71703 2.24838,3.75435 2.83296,5.88317 0.95043,2.87101 1.84744,5.75987 2.31723,8.7566 0.56209,3.52186 0.40176,7.07115 0.14593,10.61986 -0.22301,2.42417 -0.6059,4.80731 -1.60183,7.05071 -1.33335,2.26883 -4.33245,3.40366 -6.84936,3.05357 -2.13433,-0.36237 -4.15086,-1.02766 -5.94579,-2.27885 -1.92836,-1.20638 -3.69366,-2.63754 -4.86067,-4.62994 -1.28937,-2.13534 -2.35443,-4.23237 -2.10038,-6.82127 0.004,-2.96749 0.005,-5.93497 0.007,-8.90246 -0.003,-2.86925 6.6e-4,-5.73856 -0.0181,-8.60776 0,0 2.64562,-1.34801 2.64562,-1.34801 z"
       inkscape:connector-curvature="0" />
    <path
       style="fill:#000000;fill-opacity:1;stroke:#000000;stroke-opacity:1"
       id="path4349"
       d="m 309.21395,871.42793 c -0.4997,3.13513 -0.66311,6.30888 -0.79356,9.4767 -0.23249,2.32217 -0.1349,4.40544 1.03085,6.44175 1.26123,1.7823 3.08368,3.11113 4.91336,4.26407 1.65642,1.24577 3.35893,2.31091 5.4706,2.34021 0.21935,-0.0641 0.4387,-0.12811 0.65805,-0.19216 -0.67453,0.3621 -1.30743,0.81571 -2.02359,1.08628 -0.20113,0.076 0.30948,-0.30333 0.4273,-0.48317 0.43662,-0.66644 0.6713,-1.53668 0.9304,-2.27948 0.65382,-2.05951 0.74846,-4.22212 0.82596,-6.36373 0.0824,-4.07815 0.0667,-8.15764 0.0648,-12.23642 -0.007,-4.29807 -0.008,-8.59614 -0.0162,-12.8942 -0.10657,-3.19795 0.17888,-6.41904 -0.12796,-9.60695 -0.18107,-2.01962 -0.91139,-3.91289 -1.36629,-5.87445 -0.4063,-1.65217 -1.34419,-2.26982 -2.95392,-2.24109 -1.01779,0.23446 -3.21872,1.42565 0.71861,-0.67114 0.20815,-0.11084 -0.40571,0.24074 -0.60385,0.36862 -2.25031,1.45237 1.00539,-0.59245 -1.38791,0.90153 -1.79247,1.19549 -3.66429,2.27605 -5.31173,3.67103 -1.56841,1.20241 -2.77308,2.76902 -3.93606,4.34697 -1.18982,1.41512 -1.74597,3.17089 -2.44768,4.84715 -0.45867,1.56986 -1.10168,3.07846 -1.5091,4.66387 -0.38741,1.81446 -0.41997,3.67708 -0.45585,5.52453 -0.0908,2.03382 -0.13564,3.96259 0.81431,5.80471 1.07334,1.50668 2.38781,2.38969 4.15462,2.85554 1.20088,0.38016 0.59374,0.19732 1.82164,0.5478 0,0 -2.44122,1.67137 -2.44122,1.67137 l 0,0 c -1.23073,-0.35576 -0.62297,-0.17436 -1.82344,-0.54361 -1.81603,-0.53158 -3.18426,-1.4966 -4.27985,-3.06457 -0.97439,-1.89041 -0.99604,-3.84025 -0.88406,-5.93314 0.0316,-1.86541 0.0593,-3.7443 0.42051,-5.58138 0.38466,-1.6077 1.05622,-3.11238 1.4908,-4.70494 0.70073,-1.68967 1.24784,-3.47109 2.42131,-4.91078 1.14292,-1.60322 2.35569,-3.19402 3.91956,-4.41328 1.61566,-1.43898 3.4981,-2.49964 5.28224,-3.71237 2.0725,-1.23919 4.00412,-3.00707 6.44248,-3.41209 1.69822,0.0597 2.72124,0.88563 3.1534,2.58304 0.45038,1.97686 1.19603,3.87942 1.37404,5.91361 0.31137,3.20048 0.0104,6.43494 0.11393,9.64587 -0.005,4.30026 -3e-5,8.60054 0.003,12.9008 0.005,4.07582 0.0253,8.152 -0.0269,12.22757 -0.0553,2.16329 -0.14033,4.34473 -0.76837,6.43314 -0.84434,2.54638 -1.80614,4.5065 -5.07906,4.85973 -2.12706,-0.13077 -3.86074,-1.22888 -5.54016,-2.48144 -1.86423,-1.19203 -3.72448,-2.54224 -5.00378,-4.37664 -1.19745,-2.08816 -1.33358,-4.21872 -1.08051,-6.60311 0.13474,-3.17142 0.29826,-6.34567 0.7422,-9.4918 0,0 2.66713,-1.30395 2.66713,-1.30395 z"
       inkscape:connector-curvature="0" />
    <path
       style="fill:#000000;fill-opacity:1;stroke:#000000;stroke-opacity:1"
       id="path4351"
       d="m 229.91879,843.48957 c 2.6669,0.0116 5.33385,0.008 8.00078,0.0101 3.52816,6.2e-4 7.05632,0.003 10.58448,0.008 5.93616,0.0105 11.87233,0.0141 17.8085,0.0154 7.06363,0.009 14.12727,-0.003 21.19091,0.004 9.23314,0.0129 18.46628,0.018 27.69943,0.0153 6.72444,-0.006 13.44886,-0.0212 20.1733,-0.0299 3.18682,-0.005 6.37365,-0.0127 9.56048,-0.0164 1.38439,-10e-4 2.76878,-0.002 4.15318,-0.002 0,0 -2.39243,1.73821 -2.39243,1.73821 l 0,0 c -1.38246,-2.9e-4 -2.76491,-6.5e-4 -4.14736,-0.002 -3.17175,-0.004 -6.3435,-0.0109 -9.51526,-0.0164 -6.69702,-0.009 -13.39403,-0.0237 -20.09105,-0.0299 -9.24717,-0.003 -18.49433,0.002 -27.74149,0.0153 -7.06702,0.006 -14.13404,-0.005 -21.20106,0.004 -5.95027,0.001 -11.90054,0.005 -17.85081,0.0154 -3.5351,0.005 -7.07021,0.007 -10.60531,0.008 -2.67616,0.002 -5.35233,-0.002 -8.02846,0.01 0,0 2.40217,-1.74527 2.40217,-1.74527 z"
       inkscape:connector-curvature="0" />
    <path
       style="fill:#000000;fill-opacity:1;stroke:#000000;stroke-opacity:1"
       id="path4353"
       d="m 218.03633,961.49107 c 5.00479,0.0218 10.00965,0.0259 15.01447,0.0376 12.60762,0.0325 25.21529,0.04 37.82294,0.0466 15.69883,0.006 31.39767,0.009 47.0965,10e-4 10.30299,-0.002 20.60596,-0.0246 30.9089,-0.0583 3.01821,-0.0101 1.58952,-0.005 4.28608,-0.014 0,0 -2.3614,1.71565 -2.3614,1.71565 l 0,0 c -2.67263,-0.009 -1.25677,-0.004 -4.24756,-0.014 -10.24947,-0.0338 -20.49897,-0.0563 -30.7485,-0.0583 -15.70011,-0.007 -31.40023,-0.005 -47.10034,10e-4 -12.65041,0.007 -25.30084,0.0142 -37.95122,0.0466 -5.0393,0.0117 -10.07863,0.0158 -15.11789,0.0376 0,0 2.39802,-1.74227 2.39802,-1.74227 z"
       inkscape:connector-curvature="0" />
    <path
       style="fill:#000000;fill-opacity:1;stroke:#000000;stroke-opacity:1"
       id="path4355"
       d="m 358.89395,958.2722 c -1.33526,1.76842 -3.13266,3.01276 -4.96532,4.20723 -2.32636,1.34959 -4.73784,2.6977 -7.37144,3.35283 -1.08579,0.14601 -2.10515,0.56321 -3.1592,0.84799 0,0 2.35102,-1.80717 2.35102,-1.80717 l 0,0 c 1.04894,-0.29791 2.0797,-0.67405 3.16058,-0.84414 0.92798,-0.25739 6.72901,-2.80396 2.26282,-0.477 1.83805,-1.15519 3.67854,-2.36236 4.9767,-4.14279 0,0 2.74484,-1.13695 2.74484,-1.13695 z"
       inkscape:connector-curvature="0" />
    <path
       style="fill:#000000;fill-opacity:1;stroke:#000000;stroke-opacity:1"
       id="path4357"
       d="m 345.93286,955.62926 c 2.51179,0.41989 5.0513,0.62483 7.59207,0.76095 2.1235,0.18626 4.27818,-0.07 6.3866,0.24425 1.49876,0.57691 2.30589,1.48812 0.94495,2.72521 -2.95567,1.99678 -6.23864,3.06553 -9.64318,3.97094 -0.4478,0.14166 -0.8956,0.28333 -1.3434,0.42499 0,0 2.32484,-1.79894 2.32484,-1.79894 l 0,0 c 0.44962,-0.13824 0.89923,-0.27648 1.34885,-0.41472 1.41939,-0.38795 2.812,-0.81481 4.19835,-1.30941 0.38754,-0.13826 0.7778,-0.27 1.15851,-0.42608 0.32398,-0.13283 1.22358,-0.6633 0.9539,-0.43995 -0.53232,0.44086 -1.17024,0.7358 -1.75536,1.10371 1.41624,-1.0414 0.97823,-1.52867 -0.6063,-2.12774 -2.10664,-0.25709 -4.24611,-0.0502 -6.36168,-0.23329 -2.55278,-0.14823 -5.10167,-0.37247 -7.62846,-0.7748 0,0 2.43031,-1.70512 2.43031,-1.70512 z"
       inkscape:connector-curvature="0" />
  </g>
</svg>
